<svg width="544" height="500" viewBox="0 0 544 500" fill="none" xmlns="http://www.w3.org/2000/svg">
<path d="M246.809 1.40594C397.292 -11.999 397.547 72.8948 465.352 151.99C533.157 231.085 547.667 266.932 522.105 358.11C496.543 449.276 410.419 520.752 303.865 480.259C197.311 439.765 136.275 478.657 69.0646 442.689C1.85413 406.72 -23.1011 337.245 26.0936 255.371C75.2883 173.498 61.2638 17.9286 246.809 1.40594Z" fill="#8FD1DE"/>
<path opacity="0.7" d="M246.809 1.40594C397.292 -11.999 397.547 72.8948 465.352 151.99C533.157 231.085 547.667 266.932 522.105 358.11C496.543 449.276 410.419 520.752 303.865 480.259C197.311 439.765 136.275 478.657 69.0646 442.689C1.85413 406.72 -23.1011 337.245 26.0936 255.371C75.2883 173.498 61.2638 17.9286 246.809 1.40594Z" fill="white"/>
<path d="M288.736 43.8043L263.987 49.0207C260.651 49.7243 257.375 47.5893 256.672 44.2532L251.455 19.5057C250.751 16.1696 252.886 12.8942 256.223 12.1906L280.972 6.97418C284.308 6.27058 287.584 8.40566 288.287 11.7417L293.504 36.4893C294.208 39.8253 292.072 43.1007 288.736 43.8043Z" stroke="#263238" stroke-miterlimit="10" stroke-linecap="round" stroke-linejoin="round"/>
<path d="M270.902 20.4883L274.057 35.5066" stroke="#263238" stroke-miterlimit="10" stroke-linecap="round" stroke-linejoin="round"/>
<path d="M279.989 26.4083L264.97 29.5746" stroke="#263238" stroke-miterlimit="10" stroke-linecap="round" stroke-linejoin="round"/>
<path d="M538.252 308.421L513.503 313.637C510.167 314.341 506.891 312.206 506.188 308.87L500.971 284.122C500.267 280.786 502.403 277.511 505.739 276.807L530.488 271.591C533.824 270.887 537.1 273.022 537.803 276.358L543.02 301.106C543.724 304.442 541.588 307.717 538.252 308.421Z" stroke="#263238" stroke-miterlimit="10" stroke-linecap="round" stroke-linejoin="round"/>
<path d="M526.193 286.185L517.81 299.044" stroke="#263238" stroke-miterlimit="10" stroke-linecap="round" stroke-linejoin="round"/>
<path d="M528.426 296.799L515.566 288.417" stroke="#263238" stroke-miterlimit="10" stroke-linecap="round" stroke-linejoin="round"/>
<path d="M194.92 468.952L169.662 467.497C166.253 467.303 163.656 464.379 163.851 460.97L165.306 435.713C165.5 432.304 168.424 429.708 171.833 429.902L197.092 431.358C200.501 431.552 203.097 434.476 202.903 437.885L201.447 463.142C201.241 466.55 198.317 469.159 194.92 468.952Z" stroke="#263238" stroke-miterlimit="10" stroke-linecap="round" stroke-linejoin="round"/>
<path d="M191.038 449.882L175.704 448.997" stroke="#263238" stroke-miterlimit="10" stroke-linecap="round" stroke-linejoin="round"/>
<path d="M33.5303 292.408L9.52131 284.45C6.2821 283.382 4.52298 279.889 5.60272 276.65L13.5612 252.642C14.6288 249.403 18.1228 247.644 21.362 248.724L45.371 256.682C48.6102 257.749 50.3693 261.243 49.2896 264.482L41.331 288.49C40.2634 291.729 36.7695 293.475 33.5303 292.408Z" stroke="#263238" stroke-miterlimit="10" stroke-linecap="round" stroke-linejoin="round"/>
<path d="M37.0485 265.744L17.8438 275.388" stroke="#263238" stroke-miterlimit="10" stroke-linecap="round" stroke-linejoin="round"/>
<path d="M26.0328 261.777C26.7 263.099 26.1662 264.713 24.8439 265.38C23.5215 266.047 21.9079 265.513 21.2407 264.191C20.5734 262.869 21.1072 261.255 22.4296 260.588C23.752 259.921 25.3655 260.455 26.0328 261.777Z" stroke="#263238" stroke-miterlimit="10" stroke-linecap="round" stroke-linejoin="round"/>
<path d="M33.6514 276.953C34.3187 278.275 33.7849 279.889 32.4625 280.556C31.1401 281.223 29.5266 280.689 28.8593 279.367C28.1921 278.045 28.7259 276.431 30.0483 275.764C31.3828 275.097 32.9963 275.631 33.6514 276.953Z" stroke="#263238" stroke-miterlimit="10" stroke-linecap="round" stroke-linejoin="round"/>
<path d="M282.537 425.353C275.525 435.507 261.597 438.042 251.443 431.03C247.524 428.313 244.746 424.577 243.193 420.428C240.755 413.816 241.458 406.162 245.765 399.926C248.774 395.583 253.044 392.635 257.739 391.24C264.024 389.348 271.06 390.246 276.871 394.261C287.026 401.273 289.561 415.199 282.537 425.353Z" fill="#21ABB1"/>
<path opacity="0.3" d="M279.625 423.327C273.717 431.868 262.01 434.003 253.457 428.095C244.916 422.187 242.781 410.48 248.689 401.928C254.597 393.388 266.305 391.253 274.857 397.16C283.398 403.08 285.534 414.787 279.625 423.327Z" fill="black" fill-opacity="0.7"/>
<path d="M279.625 423.327C273.717 431.868 262.01 434.003 253.457 428.095C244.916 422.187 242.781 410.48 248.689 401.928C254.597 393.388 266.305 391.253 274.857 397.16C283.398 403.08 285.534 414.787 279.625 423.327Z" stroke="#263238" stroke-miterlimit="10" stroke-linecap="round" stroke-linejoin="round"/>
<path d="M268.974 403.25L269.871 401.94L272.128 403.505L271.23 404.815C272.916 406.574 272.868 408.77 271.23 411.148L270.842 411.706L268.234 409.898L268.731 409.17C269.604 407.921 269.422 407.096 268.549 406.489C267.675 405.883 266.838 406.016 265.977 407.266C265.116 408.515 265.006 409.74 265.844 412.506C266.851 415.879 266.681 417.795 265.286 419.797C263.636 422.175 261.549 423 259.317 422.041L258.431 423.327L256.174 421.762L257.06 420.476C255.35 418.705 255.41 416.485 257.06 414.095L257.897 412.894L260.506 414.702L259.547 416.085C258.674 417.334 258.916 418.172 259.802 418.778C260.675 419.385 261.549 419.312 262.41 418.062C263.272 416.813 263.405 415.563 262.544 412.822C261.513 409.473 261.707 407.533 263.102 405.531C264.727 403.177 266.753 402.34 268.974 403.25Z" fill="#21ABB1" stroke="#263238" stroke-miterlimit="10" stroke-linecap="round" stroke-linejoin="round"/>
<path opacity="0.2" d="M257.921 394.528C257.921 405.543 252.013 415.175 243.193 420.428C240.755 413.817 241.458 406.162 245.765 399.926C248.774 395.583 253.044 392.636 257.739 391.24C257.861 392.32 257.921 393.412 257.921 394.528Z" fill="black" fill-opacity="0.7"/>
<path d="M282.537 425.353C275.525 435.507 261.597 438.042 251.443 431.03C247.524 428.313 244.746 424.577 243.193 420.428C240.755 413.816 241.458 406.162 245.765 399.926C248.774 395.583 253.044 392.635 257.739 391.24C264.024 389.348 271.06 390.246 276.871 394.261C287.026 401.273 289.561 415.199 282.537 425.353Z" stroke="#263238" stroke-miterlimit="10" stroke-linecap="round" stroke-linejoin="round"/>
<path d="M232.238 416.194C244.587 416.194 254.597 406.184 254.597 393.836C254.597 381.489 244.587 371.479 232.238 371.479C219.89 371.479 209.879 381.489 209.879 393.836C209.879 406.184 219.89 416.194 232.238 416.194Z" fill="#21ABB1" stroke="#263238" stroke-miterlimit="10" stroke-linecap="round" stroke-linejoin="round"/>
<path opacity="0.3" d="M232.238 412.64C242.624 412.64 251.043 404.221 251.043 393.836C251.043 383.452 242.624 375.033 232.238 375.033C221.853 375.033 213.434 383.452 213.434 393.836C213.434 404.221 221.853 412.64 232.238 412.64Z" fill="black" fill-opacity="0.7"/>
<path d="M232.238 412.64C242.624 412.64 251.043 404.221 251.043 393.836C251.043 383.452 242.624 375.033 232.238 375.033C221.853 375.033 213.434 383.452 213.434 393.836C213.434 404.221 221.853 412.64 232.238 412.64Z" stroke="#263238" stroke-miterlimit="10" stroke-linecap="round" stroke-linejoin="round"/>
<path d="M230.868 383.367V381.778H233.609V383.367C235.987 383.852 237.213 385.684 237.213 388.584V389.251H234.034V388.365C234.034 386.837 233.427 386.254 232.36 386.254C231.292 386.254 230.686 386.837 230.686 388.365C230.686 389.894 231.292 390.961 233.549 392.757C236.291 394.952 237.237 396.626 237.237 399.065C237.237 401.964 235.987 403.82 233.609 404.306V405.858H230.868V404.306C228.453 403.82 227.24 401.952 227.24 399.065V397.597H230.419V399.271C230.419 400.8 231.086 401.346 232.154 401.346C233.221 401.346 233.888 400.8 233.888 399.271C233.888 397.743 233.282 396.651 231.025 394.88C228.284 392.708 227.337 391.01 227.337 388.559C227.325 385.721 228.514 383.889 230.868 383.367Z" fill="#21ABB1" stroke="#263238" stroke-miterlimit="10" stroke-linecap="round" stroke-linejoin="round"/>
<path d="M357.725 412.592C364.387 402.195 361.359 388.367 350.961 381.705C340.564 375.043 326.734 378.071 320.072 388.468C313.41 398.865 316.439 412.694 326.836 419.355C337.234 426.017 351.063 422.989 357.725 412.592Z" fill="#21ABB1" stroke="#263238" stroke-miterlimit="10" stroke-linecap="round" stroke-linejoin="round"/>
<path opacity="0.3" d="M352.671 387.759C359.744 395.365 359.295 407.266 351.689 414.338C344.082 421.411 332.181 420.962 325.108 413.356C318.035 405.749 318.484 393.849 326.09 386.776C333.709 379.716 345.611 380.153 352.671 387.759Z" fill="black" fill-opacity="0.7"/>
<path d="M352.671 387.759C359.744 395.365 359.295 407.266 351.689 414.338C344.082 421.411 332.181 420.962 325.108 413.356C318.035 405.749 318.484 393.849 326.09 386.776C333.709 379.716 345.611 380.153 352.671 387.759Z" stroke="#263238" stroke-miterlimit="10" stroke-linecap="round" stroke-linejoin="round"/>
<path d="M330.774 393.837L329.694 392.672L331.708 390.804L332.787 391.968C334.862 390.707 336.997 391.216 338.975 393.339L339.436 393.837L337.106 395.996L336.5 395.353C335.456 394.237 334.619 394.225 333.843 394.953C333.066 395.681 333.006 396.518 334.049 397.634C335.093 398.75 336.257 399.114 339.145 398.895C342.651 398.641 344.483 399.223 346.145 401.006C348.122 403.129 348.462 405.349 347.055 407.314L348.11 408.455L346.096 410.323L345.041 409.183C342.942 410.468 340.782 409.935 338.817 407.812L337.822 406.744L340.152 404.585L341.292 405.81C342.335 406.926 343.197 406.878 343.973 406.15C344.749 405.422 344.871 404.561 343.84 403.445C342.796 402.328 341.607 401.94 338.744 402.183C335.262 402.462 333.406 401.855 331.744 400.072C329.779 397.961 329.403 395.814 330.774 393.837Z" fill="#21ABB1" stroke="#263238" stroke-miterlimit="10" stroke-linecap="round" stroke-linejoin="round"/>
<path opacity="0.2" d="M329.694 303.387C329.694 303.387 329.597 349.776 329.694 352.481C329.791 355.187 333.297 371.479 333.297 371.479L322.039 392.235L331.732 400.048L350.597 381.499C350.597 381.499 366.66 391.422 369.595 405.616C372.531 419.809 390.013 430.145 408.15 469.45C426.288 508.755 446.972 381.499 446.972 381.499L391.008 311.041L329.694 303.387Z" fill="black" fill-opacity="0.7"/>
<path d="M500.777 54.1643L483.635 221.429L473.092 324.325L325.763 309.234L297.095 306.298L278.74 304.418L295.009 145.621L306.425 34.2571L500.777 54.1643Z" fill="white"/>
<path d="M444.328 60.4119L360.436 51.811C358.859 51.6533 357.452 52.7936 357.294 54.3706C357.136 55.9477 358.277 57.3549 359.854 57.5126L443.746 66.1136C445.323 66.2713 446.73 65.131 446.888 63.5539C447.058 61.9769 445.905 60.5696 444.328 60.4119Z" fill="#263238"/>
<path d="M422.163 69.9712L380.211 65.6768C379.422 65.5919 378.719 66.1742 378.634 66.9506C378.549 67.7391 379.131 68.4427 379.908 68.5276L421.86 72.8221C422.648 72.907 423.352 72.3247 423.437 71.5483C423.522 70.7598 422.951 70.0562 422.163 69.9712Z" fill="#263238"/>
<path d="M468.312 193.43L332.144 179.479C331.355 179.394 330.652 179.976 330.567 180.753C330.482 181.541 331.064 182.245 331.841 182.33L468.009 196.281C468.797 196.366 469.501 195.783 469.586 195.007C469.671 194.231 469.101 193.503 468.312 193.43Z" fill="#263238"/>
<path d="M467.257 203.681L308.924 187.461C308.135 187.376 307.432 187.959 307.347 188.735C307.262 189.524 307.844 190.227 308.62 190.312L466.953 206.532C467.742 206.616 468.446 206.034 468.531 205.258C468.616 204.457 468.045 203.753 467.257 203.681Z" fill="#263238"/>
<path d="M421.871 209.382L307.88 197.7C307.092 197.615 306.388 198.197 306.303 198.974C306.218 199.762 306.801 200.466 307.577 200.551L421.568 212.233C422.357 212.318 423.06 211.736 423.145 210.959C423.23 210.183 422.66 209.467 421.871 209.382Z" fill="#263238"/>
<path d="M306.079 208.764L301.448 253.97L461.069 270.32L465.7 225.113L306.079 208.764Z" fill="#BFBFBF" stroke="#263238" stroke-miterlimit="10"/>
<path d="M356.541 164.715C376.166 164.715 392.075 148.807 392.075 129.183C392.075 109.559 376.166 93.6511 356.541 93.6511C336.916 93.6511 321.007 109.559 321.007 129.183C321.007 148.807 336.916 164.715 356.541 164.715Z" fill="#A1F5F8"/>
<path opacity="0.5" d="M379.282 156.467C394.36 143.905 396.399 121.5 383.837 106.423C371.275 91.3462 348.869 89.3067 333.791 101.868C318.713 114.429 316.673 136.834 329.235 151.911C341.797 166.988 364.204 169.028 379.282 156.467Z" fill="white"/>
<path d="M356.541 164.715C376.166 164.715 392.075 148.807 392.075 129.183C392.075 109.559 376.166 93.6511 356.541 93.6511C336.916 93.6511 321.007 109.559 321.007 129.183C321.007 148.807 336.916 164.715 356.541 164.715Z" stroke="#263238" stroke-miterlimit="10"/>
<path d="M357.561 129.062L387.114 143.935C388.788 140.477 389.892 136.68 390.304 132.641C391.239 123.518 388.46 114.868 383.207 108.196L357.561 129.062Z" fill="white"/>
<path d="M357.767 127.473L382.516 107.335C378.864 103.004 374.145 99.5711 368.697 97.4845L364.233 109.737L357.767 127.473Z" fill="#2FC5E3"/>
<path d="M360.557 95.4828L357.561 124.767L367.642 97.0962C365.386 96.332 363.02 95.7739 360.557 95.4828Z" fill="#757575"/>
<path d="M356.02 128.807L359.441 95.3737C341.025 93.7845 324.659 107.262 322.766 125.714C322.148 131.731 323.155 137.529 325.399 142.697L356.02 128.807Z" fill="#999999"/>
<path d="M353.084 162.944C367.302 164.4 380.356 156.854 386.604 144.929L356.529 129.802L325.872 143.728C330.798 154.076 340.843 161.683 353.084 162.944Z" fill="#BFBFBF"/>
<path d="M412.991 111.678L408.939 111.266C408.526 111.217 408.223 110.853 408.259 110.429L408.672 106.377C408.72 105.964 409.084 105.661 409.509 105.697L413.561 106.11C413.973 106.158 414.277 106.522 414.24 106.947L413.828 110.999C413.791 111.411 413.415 111.714 412.991 111.678Z" fill="#2FC5E3" stroke="#263238" stroke-miterlimit="10"/>
<path d="M469.89 113.934L417.662 108.585C417.31 108.548 417.055 108.233 417.092 107.881C417.128 107.529 417.444 107.274 417.796 107.311L470.023 112.661C470.375 112.697 470.63 113.012 470.593 113.364C470.557 113.716 470.242 113.971 469.89 113.934Z" fill="#263238"/>
<path d="M464.491 116.191L417.371 111.363C417.019 111.326 416.764 111.011 416.8 110.659C416.837 110.307 417.152 110.052 417.504 110.089L464.624 114.917C464.976 114.953 465.231 115.269 465.194 115.621C465.158 115.972 464.842 116.227 464.491 116.191Z" fill="#263238"/>
<path d="M411.717 124.137L407.665 123.724C407.252 123.676 406.949 123.312 406.985 122.887L407.398 118.835C407.446 118.423 407.81 118.12 408.235 118.156L412.287 118.568C412.7 118.617 413.003 118.981 412.966 119.406L412.554 123.457C412.505 123.882 412.141 124.185 411.717 124.137Z" fill="#757575" stroke="#263238" stroke-miterlimit="10" stroke-linecap="round" stroke-linejoin="round"/>
<path d="M468.616 126.393L416.388 121.043C416.036 121.007 415.782 120.691 415.818 120.34C415.854 119.988 416.17 119.733 416.522 119.769L468.749 125.119C469.101 125.156 469.356 125.471 469.319 125.823C469.283 126.175 468.968 126.429 468.616 126.393Z" fill="#263238"/>
<path d="M463.217 128.649L416.097 123.821C415.745 123.785 415.49 123.469 415.526 123.118C415.563 122.766 415.878 122.511 416.23 122.548L463.35 127.376C463.702 127.412 463.957 127.728 463.92 128.079C463.884 128.431 463.569 128.686 463.217 128.649Z" fill="#263238"/>
<path d="M410.443 136.595L406.391 136.183C405.979 136.134 405.676 135.771 405.712 135.346L406.124 131.294C406.173 130.882 406.537 130.578 406.962 130.615L411.014 131.027C411.426 131.076 411.729 131.44 411.693 131.864L411.28 135.916C411.232 136.341 410.856 136.644 410.443 136.595Z" fill="#999999" stroke="#263238" stroke-miterlimit="10" stroke-linecap="round" stroke-linejoin="round"/>
<path d="M467.33 138.852L415.102 133.502C414.751 133.466 414.496 133.15 414.532 132.798C414.569 132.447 414.884 132.192 415.236 132.228L467.464 137.578C467.815 137.614 468.07 137.93 468.034 138.282C468.01 138.633 467.694 138.888 467.33 138.852Z" fill="#263238"/>
<path d="M461.931 141.12L414.811 136.292C414.459 136.256 414.204 135.94 414.241 135.589C414.277 135.237 414.593 134.982 414.944 135.018L462.065 139.847C462.416 139.883 462.671 140.198 462.635 140.55C462.598 140.89 462.283 141.157 461.931 141.12Z" fill="#263238"/>
<path d="M409.169 149.066L405.117 148.654C404.705 148.605 404.402 148.241 404.438 147.817L404.85 143.765C404.899 143.352 405.263 143.049 405.688 143.086L409.74 143.498C410.152 143.547 410.455 143.911 410.419 144.335L410.007 148.387C409.958 148.799 409.582 149.103 409.169 149.066Z" fill="#BFBFBF" stroke="#263238" stroke-miterlimit="10"/>
<path d="M466.057 151.323L413.829 145.973C413.477 145.936 413.222 145.621 413.259 145.269C413.295 144.917 413.611 144.663 413.962 144.699L466.19 150.049C466.542 150.085 466.797 150.401 466.76 150.752C466.724 151.104 466.408 151.359 466.057 151.323Z" fill="#263238"/>
<path d="M460.657 153.579L413.537 148.751C413.185 148.714 412.93 148.399 412.967 148.047C413.003 147.695 413.319 147.441 413.671 147.477L460.791 152.305C461.142 152.342 461.397 152.657 461.361 153.009C461.324 153.361 461.009 153.615 460.657 153.579Z" fill="#263238"/>
<path d="M407.883 161.525L403.831 161.112C403.419 161.064 403.115 160.7 403.152 160.275L403.564 156.224C403.613 155.811 403.977 155.508 404.401 155.544L408.453 155.957C408.866 156.005 409.169 156.369 409.133 156.794L408.72 160.846C408.672 161.258 408.308 161.561 407.883 161.525Z" fill="white" stroke="#263238" stroke-miterlimit="10" stroke-linecap="round" stroke-linejoin="round"/>
<path d="M464.782 163.781L412.555 158.431C412.203 158.395 411.948 158.08 411.984 157.728C412.021 157.376 412.336 157.121 412.688 157.158L464.916 162.507C465.268 162.544 465.522 162.859 465.486 163.211C465.45 163.563 465.134 163.818 464.782 163.781Z" fill="#263238"/>
<path d="M459.383 166.038L412.263 161.209C411.911 161.173 411.657 160.858 411.693 160.506C411.729 160.154 412.045 159.899 412.397 159.936L459.517 164.764C459.868 164.8 460.123 165.116 460.087 165.468C460.05 165.819 459.735 166.074 459.383 166.038Z" fill="#263238"/>
<path d="M441.556 255.051L444.537 255.356L446.286 238.304L443.305 237.998L441.556 255.051Z" fill="#757575" stroke="#263238" stroke-miterlimit="10" stroke-linecap="round" stroke-linejoin="round"/>
<path d="M441.802 252.51L444.783 252.816L445.605 244.791L442.624 244.485L441.802 252.51Z" fill="#92E3A9" stroke="#263238" stroke-miterlimit="10"/>
<path d="M448.696 251.463L451.677 251.768L453.424 234.716L450.443 234.411L448.696 251.463Z" fill="#757575" stroke="#263238" stroke-miterlimit="10" stroke-linecap="round" stroke-linejoin="round"/>
<path d="M449.999 238.931L449.176 246.957L452.157 247.262L452.98 239.237L449.999 238.931Z" fill="#92E3A9" stroke="#263238" stroke-miterlimit="10"/>
<path d="M455.073 255.413L458.054 255.719L459.801 238.667L456.82 238.361L455.073 255.413Z" fill="#757575" stroke="#263238" stroke-miterlimit="10" stroke-linecap="round" stroke-linejoin="round"/>
<path d="M455.745 248.968L458.726 249.273L459.549 241.248L456.568 240.943L455.745 248.968Z" fill="#92E3A9" stroke="#263238" stroke-miterlimit="10"/>
<path d="M435.188 250.99L438.169 251.295L439.918 234.243L436.937 233.937L435.188 250.99Z" fill="#757575" stroke="#263238" stroke-miterlimit="10" stroke-linecap="round" stroke-linejoin="round"/>
<path d="M435.435 248.449L438.416 248.754L439.238 240.729L436.257 240.424L435.435 248.449Z" fill="#92E3A9" stroke="#263238" stroke-miterlimit="10"/>
<path d="M427.945 255.374L430.926 255.679L432.673 238.627L429.692 238.322L427.945 255.374Z" fill="#757575" stroke="#263238" stroke-miterlimit="10" stroke-linecap="round" stroke-linejoin="round"/>
<path d="M428.158 253.419L431.139 253.725L431.962 245.7L428.981 245.394L428.158 253.419Z" fill="#92E3A9" stroke="#263238" stroke-miterlimit="10"/>
<path d="M421.681 250.287L424.662 250.592L426.408 233.54L423.427 233.235L421.681 250.287Z" fill="#757575" stroke="#263238" stroke-miterlimit="10" stroke-linecap="round" stroke-linejoin="round"/>
<path d="M421.762 249.617L424.743 249.923L425.566 241.898L422.585 241.592L421.762 249.617Z" fill="#92E3A9" stroke="#263238" stroke-miterlimit="10"/>
<path d="M414.068 258.49L417.049 258.796L418.797 241.743L415.816 241.438L414.068 258.49Z" fill="#757575" stroke="#263238" stroke-miterlimit="10" stroke-linecap="round" stroke-linejoin="round"/>
<path d="M414.127 257.844L417.108 258.15L417.931 250.125L414.95 249.819L414.127 257.844Z" fill="#92E3A9" stroke="#263238" stroke-miterlimit="10"/>
<path d="M408.435 247.08L411.416 247.386L413.162 230.333L410.181 230.028L408.435 247.08Z" fill="#757575" stroke="#263238" stroke-miterlimit="10" stroke-linecap="round" stroke-linejoin="round"/>
<path d="M408.706 244.512L411.687 244.817L412.509 236.792L409.528 236.487L408.706 244.512Z" fill="#92E3A9" stroke="#263238" stroke-miterlimit="10"/>
<path d="M401.835 245.374L404.816 245.679L406.565 228.627L403.584 228.322L401.835 245.374Z" fill="#757575" stroke="#263238" stroke-miterlimit="10" stroke-linecap="round" stroke-linejoin="round"/>
<path d="M402.482 238.984L405.463 239.289L406.285 231.264L403.304 230.959L402.482 238.984Z" fill="#92E3A9" stroke="#263238" stroke-miterlimit="10"/>
<path d="M394.015 255.417L396.996 255.722L398.742 238.67L395.761 238.365L394.015 255.417Z" fill="#757575" stroke="#263238" stroke-miterlimit="10" stroke-linecap="round" stroke-linejoin="round"/>
<path d="M394.744 248.35L397.725 248.656L398.547 240.63L395.566 240.325L394.744 248.35Z" fill="#92E3A9" stroke="#263238" stroke-miterlimit="10"/>
<path d="M388.068 247.229L391.049 247.535L392.796 230.483L389.815 230.177L388.068 247.229Z" fill="#757575" stroke="#263238" stroke-miterlimit="10" stroke-linecap="round" stroke-linejoin="round"/>
<path d="M388.396 244.022L391.377 244.327L392.199 236.302L389.218 235.997L388.396 244.022Z" fill="#92E3A9" stroke="#263238" stroke-miterlimit="10"/>
<path d="M380.91 250.967L383.891 251.273L385.639 234.22L382.658 233.915L380.91 250.967Z" fill="#757575" stroke="#263238" stroke-miterlimit="10" stroke-linecap="round" stroke-linejoin="round"/>
<path d="M381.167 248.424L384.148 248.73L384.971 240.704L381.99 240.399L381.167 248.424Z" fill="#92E3A9" stroke="#263238" stroke-miterlimit="10"/>
<path d="M373.412 257.937L376.393 258.243L378.141 241.191L375.16 240.885L373.412 257.937Z" fill="#757575" stroke="#263238" stroke-miterlimit="10" stroke-linecap="round" stroke-linejoin="round"/>
<path d="M373.397 257.959L376.378 258.264L377.201 250.239L374.22 249.934L373.397 257.959Z" fill="#92E3A9" stroke="#263238" stroke-miterlimit="10"/>
<path d="M367.79 246.475L370.771 246.781L372.517 229.729L369.536 229.423L367.79 246.475Z" fill="#757575" stroke="#263238" stroke-miterlimit="10" stroke-linecap="round" stroke-linejoin="round"/>
<path d="M367.988 244.551L370.969 244.856L371.791 236.831L368.81 236.526L367.988 244.551Z" fill="#92E3A9" stroke="#263238" stroke-miterlimit="10"/>
<path d="M361.866 238.269L364.847 238.574L366.596 221.522L363.615 221.217L361.866 238.269Z" fill="#757575" stroke="#263238" stroke-miterlimit="10" stroke-linecap="round" stroke-linejoin="round"/>
<path d="M362.041 236.366L365.021 236.671L365.844 228.646L362.863 228.341L362.041 236.366Z" fill="#92E3A9" stroke="#263238" stroke-miterlimit="10"/>
<path d="M354.207 246.63L357.188 246.936L358.935 229.883L355.954 229.578L354.207 246.63Z" fill="#757575" stroke="#263238" stroke-miterlimit="10" stroke-linecap="round" stroke-linejoin="round"/>
<path d="M354.881 240.179L357.862 240.485L358.685 232.46L355.704 232.154L354.881 240.179Z" fill="#92E3A9" stroke="#263238" stroke-miterlimit="10"/>
<path d="M346.508 255.577L349.489 255.882L351.236 238.83L348.255 238.525L346.508 255.577Z" fill="#757575" stroke="#263238" stroke-miterlimit="10" stroke-linecap="round" stroke-linejoin="round"/>
<path d="M347.297 247.867L350.278 248.172L351.1 240.147L348.119 239.842L347.297 247.867Z" fill="#92E3A9" stroke="#263238" stroke-miterlimit="10"/>
<path d="M340.782 245.249L343.763 245.555L345.51 228.502L342.529 228.197L340.782 245.249Z" fill="#757575" stroke="#263238" stroke-miterlimit="10" stroke-linecap="round" stroke-linejoin="round"/>
<path d="M341.052 242.66L344.033 242.965L344.856 234.94L341.875 234.634L341.052 242.66Z" fill="#92E3A9" stroke="#263238" stroke-miterlimit="10"/>
<path d="M334.366 241.707L337.347 242.013L339.096 224.96L336.115 224.655L334.366 241.707Z" fill="#757575" stroke="#263238" stroke-miterlimit="10" stroke-linecap="round" stroke-linejoin="round"/>
<path d="M335.084 234.662L338.065 234.967L338.887 226.942L335.906 226.636L335.084 234.662Z" fill="#92E3A9" stroke="#263238" stroke-miterlimit="10"/>
<path d="M327.115 246.335L330.096 246.641L331.844 229.589L328.863 229.283L327.115 246.335Z" fill="#757575" stroke="#263238" stroke-miterlimit="10" stroke-linecap="round" stroke-linejoin="round"/>
<path d="M327.102 246.353L330.083 246.658L330.906 238.633L327.925 238.328L327.102 246.353Z" fill="#92E3A9" stroke="#263238" stroke-miterlimit="10"/>
<path d="M320.929 240.347L323.91 240.653L325.657 223.6L322.676 223.295L320.929 240.347Z" fill="#757575" stroke="#263238" stroke-miterlimit="10" stroke-linecap="round" stroke-linejoin="round"/>
<path d="M321.082 239.043L324.063 239.349L324.886 231.323L321.905 231.018L321.082 239.043Z" fill="#92E3A9" stroke="#263238" stroke-miterlimit="10"/>
<path d="M313.98 241.959L316.961 242.264L318.708 225.212L315.727 224.907L313.98 241.959Z" fill="#757575" stroke="#263238" stroke-miterlimit="10" stroke-linecap="round" stroke-linejoin="round"/>
<path d="M314.051 241.315L317.032 241.62L317.854 233.595L314.873 233.289L314.051 241.315Z" fill="#92E3A9" stroke="#263238" stroke-miterlimit="10"/>
<path d="M307.493 239.089L310.474 239.395L312.22 222.342L309.239 222.037L307.493 239.089Z" fill="#757575" stroke="#263238" stroke-miterlimit="10" stroke-linecap="round" stroke-linejoin="round"/>
<path d="M308.353 230.738L311.334 231.044L312.156 223.019L309.175 222.713L308.353 230.738Z" fill="#92E3A9" stroke="#263238" stroke-miterlimit="10"/>
<path d="M459.844 275.994L323.676 262.044C322.888 261.959 322.184 262.541 322.099 263.317C322.014 264.106 322.596 264.81 323.373 264.894L459.541 278.845C460.329 278.93 461.033 278.348 461.118 277.572C461.203 276.795 460.633 276.079 459.844 275.994Z" fill="#263238"/>
<path d="M458.801 286.245L300.468 270.026C299.68 269.941 298.976 270.523 298.891 271.3C298.806 272.088 299.388 272.792 300.165 272.877L458.498 289.096C459.286 289.181 459.99 288.599 460.075 287.822C460.16 287.034 459.59 286.33 458.801 286.245Z" fill="#263238"/>
<path d="M391.239 289.69L299.413 280.277C298.624 280.192 297.92 280.774 297.835 281.55C297.75 282.339 298.333 283.043 299.109 283.127L390.935 292.541C391.724 292.626 392.428 292.044 392.512 291.267C392.597 290.467 392.027 289.763 391.239 289.69Z" fill="#263238"/>
<path opacity="0.2" d="M474.863 198.137C470.168 197.761 468.543 205.246 468.543 205.246C468.543 205.246 461.118 195.516 462.295 172.637C462.295 172.637 458.667 162.496 448.95 168.622C439.244 174.748 429.163 196.341 431.565 219.864L412.676 157.158C406.149 158.541 392.888 167.312 396.382 209.661L375.77 187.874C375.77 187.874 370.19 186.078 367.035 191.016C363.881 195.965 365.385 231.315 367.994 244.538C370.614 257.774 363.954 284.329 363.954 284.329C363.954 284.329 356.845 254.243 343.985 246.625L295.009 145.621L278.74 304.418L297.095 306.298L326.576 291.947C326.406 298.583 326.248 304.685 325.763 309.234L473.092 324.325L483.635 221.429C480.056 208.606 476.635 198.27 474.863 198.137Z" fill="black" fill-opacity="0.7"/>
<path d="M500.777 54.1643L483.635 221.429L473.092 324.325L325.763 309.234L297.095 306.298L278.74 304.418L295.009 145.621L306.425 34.2571L500.777 54.1643Z" stroke="#263238" stroke-miterlimit="10" stroke-linecap="round" stroke-linejoin="round"/>
<path d="M498.352 484.772L412.216 499.426C412.216 499.426 397.221 419.785 388.28 407.241C379.338 394.686 380.976 389.53 376.633 381.075C374.013 375.967 360.874 366.444 350.562 357.043H350.549C349.652 356.23 348.778 355.417 347.941 354.604C347.577 354.277 347.237 353.925 346.898 353.598C345.527 352.239 344.253 350.917 343.125 349.619C342.712 349.158 342.324 348.697 341.96 348.236C339.813 345.579 338.296 343.092 337.787 340.848C337.75 340.726 337.726 340.605 337.714 340.472C337.678 340.314 337.653 340.168 337.641 340.023C337.411 338.142 337.168 335.995 336.925 333.666C336.877 333.205 336.828 332.72 336.768 332.235C336.743 332.04 336.719 331.859 336.695 331.652C336.489 329.711 336.258 327.649 335.991 325.526C335.724 323.306 335.433 321.001 335.093 318.684C334.984 317.883 334.875 317.083 334.742 316.27C334.742 316.258 334.742 316.246 334.73 316.246C334.596 315.348 334.45 314.45 334.305 313.54C334.171 312.764 334.038 311.988 333.905 311.211C333.88 311.078 333.844 310.957 333.832 310.847C333.662 309.938 333.492 309.052 333.322 308.154C333.286 308.057 333.274 307.96 333.262 307.851C333.092 307.062 332.934 306.286 332.752 305.498C332.376 303.739 331.951 302.016 331.49 300.342C330.58 297.006 329.513 293.888 328.275 291.122C322.064 277.256 330.144 282.266 325.279 246.589C325.279 246.589 328.858 238.315 339.061 244.927C339.849 245.436 340.601 245.994 341.341 246.589H341.354C343.404 248.239 345.224 250.192 346.776 252.387C348.802 255.238 350.38 258.501 351.459 262.044C353.073 267.321 353.595 273.229 352.842 279.391C352.842 279.391 360.51 305.667 364.55 311.648C368.602 317.629 385.295 283.273 384.215 279.27C383.997 278.469 383.694 276.516 383.354 273.835C383.281 273.241 383.208 272.61 383.124 271.943C383.051 271.276 382.966 270.584 382.893 269.868C382.844 269.529 382.808 269.165 382.76 268.813C382.747 268.667 382.735 268.522 382.711 268.388C382.565 267.018 382.396 265.562 382.238 264.058C382.202 263.633 382.153 263.233 382.104 262.82C382.032 262.104 381.959 261.364 381.886 260.637C381.862 260.527 381.862 260.406 381.85 260.273C381.801 259.86 381.753 259.436 381.716 258.999C381.619 258.15 381.534 257.288 381.449 256.427C381.364 255.687 381.304 254.947 381.231 254.207C381.085 252.812 380.952 251.417 380.818 250.07C380.721 249.063 380.624 248.069 380.539 247.098C380.515 246.88 380.491 246.661 380.479 246.455C379.969 241.118 379.569 236.726 379.423 234.858C379.423 234.858 367.279 216.88 366.03 208.412C364.78 199.932 364.889 191.028 369.973 187.401C382.007 178.836 378.489 192.641 383.876 198.355C389.262 204.093 397.524 213.434 402.207 216.358C406.526 219.1 410.384 229.751 410.93 231.303C410.311 228.974 404.136 206.071 404.002 201.461C403.845 196.596 400.132 170.939 406.441 161.731C412.737 152.536 421.133 159.669 421.909 161.489C422.686 163.308 422.916 188.165 425.136 195.092C427.368 202.007 436.649 230.842 436.649 230.842C436.649 230.842 437.038 202.795 439.136 190.24C441.223 177.696 446.682 167.87 452.02 167.312C457.358 166.754 462.296 172.637 462.296 172.637C462.296 172.637 460.185 192.654 460.792 197.276C461.386 201.885 459.918 218.59 462.454 227.567C462.454 227.567 462.163 203.657 465.875 200.6C469.599 197.542 472.778 196.075 474.865 198.137C476.939 200.199 477.4 214.356 479.523 222.872C481.659 231.4 481.38 242.961 482.775 256.245C484.17 269.529 489.666 287.968 488.574 298.51C487.482 309.028 484.121 335.195 481.416 350.54C478.71 365.899 471.807 386.91 471.807 386.91C471.807 386.91 474.95 398.131 474.343 408.139C473.724 418.147 498.352 484.772 498.352 484.772Z" fill="white"/>
<path opacity="0.4" d="M425.147 195.08C426.797 200.199 432.305 217.328 435.059 225.881C435.059 225.881 423.012 234.736 423.315 242.949C423.631 251.162 421.107 267.77 415.709 267.296C410.31 266.835 410.795 232.286 409.024 226.487C410.116 228.974 410.832 231.012 410.977 231.413C410.577 229.92 404.147 206.155 404.013 201.449C403.977 200.345 403.759 198.137 403.504 195.286V195.225C403.504 195.225 415.466 183.774 424.261 190.785V190.797C424.516 192.556 424.807 194.024 425.147 195.08Z" fill="#2FC5E3"/>
<path opacity="0.4" d="M460.912 204.955C455.307 210.268 446.851 219.67 445.783 228.732C445.783 228.732 448.913 254.025 447.579 265.064L436.648 230.842C436.648 230.842 437.036 202.795 439.135 190.239C439.196 189.9 439.256 189.548 439.317 189.196C444.679 186.455 452.031 184.004 461.263 183.834C460.839 189.245 460.499 195.043 460.79 197.263C460.972 198.78 460.96 201.57 460.912 204.955Z" fill="#2FC5E3"/>
<path opacity="0.4" d="M465.874 200.599C465.849 200.624 465.837 200.636 465.825 200.636C465.692 200.733 465.364 200.988 464.891 201.388C465.194 200.83 465.51 200.296 465.849 199.811L465.874 200.599Z" fill="#92E3A9"/>
<path opacity="0.4" d="M468.725 270.56C468.725 270.56 461.519 243.532 461.397 221.768C461.349 213.713 462.271 206.374 464.879 201.412L464.891 201.4C465.195 200.842 465.51 200.308 465.85 199.823L465.874 200.612C467.415 199.35 468.846 198.355 470.169 197.773C468.143 200.927 465.813 207.102 468.507 217.134C472.741 232.844 469.052 252.035 468.725 270.56Z" fill="#2FC5E3"/>
<path opacity="0.4" d="M369.329 322.069C369.329 322.069 371.27 347.823 350.561 357.055H350.548C349.651 356.242 348.789 355.429 347.94 354.616C347.576 354.277 347.236 353.937 346.897 353.61C345.526 352.251 344.252 350.929 343.124 349.631C342.711 349.157 342.323 348.696 341.959 348.248C339.812 345.591 338.295 343.104 337.786 340.86C337.749 340.738 337.725 340.605 337.713 340.484C337.677 340.326 337.652 340.18 337.64 340.035C337.41 338.154 337.167 336.007 336.924 333.678C336.876 333.217 336.827 332.732 336.767 332.247C336.742 332.053 336.718 331.858 336.706 331.664C336.488 329.723 336.257 327.661 336.002 325.538C335.735 323.318 335.444 321.013 335.105 318.696C334.983 317.895 334.874 317.083 334.753 316.282C334.753 316.27 334.753 316.258 334.741 316.258C334.607 315.36 334.462 314.45 334.316 313.553C334.183 312.776 334.049 312 333.916 311.211C333.891 311.09 333.867 310.969 333.843 310.847C333.673 309.95 333.503 309.052 333.321 308.154C333.297 308.057 333.273 307.948 333.261 307.851C333.103 307.062 332.933 306.274 332.763 305.497C332.363 303.738 331.95 302.016 331.489 300.342C339.678 292.456 358.58 297.406 349.432 279.149C349.432 279.149 354.042 263.524 341.34 246.576H341.352C350.039 253.588 354.491 265.889 352.841 279.391C352.841 279.391 360.509 305.655 364.549 311.648C368.601 317.629 385.294 283.273 384.202 279.27C383.996 278.481 383.693 276.516 383.353 273.835C383.28 273.241 383.207 272.61 383.122 271.943C383.038 271.275 382.965 270.584 382.88 269.868C382.831 269.529 382.795 269.177 382.759 268.825C382.746 268.679 382.734 268.534 382.71 268.4C382.564 267.017 382.407 265.574 382.237 264.057C382.2 263.645 382.152 263.233 382.103 262.82C382.031 262.104 381.958 261.376 381.885 260.636C381.873 260.527 381.861 260.406 381.849 260.273C381.812 259.86 381.752 259.435 381.715 258.987C381.618 258.137 381.545 257.276 381.448 256.415C381.375 255.675 381.303 254.935 381.23 254.195C381.096 252.8 380.951 251.405 380.83 250.058C380.732 249.051 380.635 248.044 380.538 247.098C380.514 246.88 380.502 246.661 380.478 246.443C380.817 248.032 386.968 277.317 390.474 284.134C394.078 291.171 378.779 328.134 369.329 322.069Z" fill="#2FC5E3"/>
<path opacity="0.4" d="M481.415 350.54C478.709 365.898 471.819 386.909 471.819 386.909C471.819 386.909 474.961 398.131 474.342 408.139C474.172 410.832 475.846 417.626 478.345 426.117C477.618 424.249 469.89 404.209 470.011 397.221C470.156 389.882 468.07 387.856 463.981 378.842C459.905 369.817 453.657 370.824 453.657 370.824C453.657 370.824 451.255 393.315 445.602 378.539C439.96 363.751 438.868 346.573 453.099 286.888C453.099 286.888 455.246 294.373 453.451 316.609C451.643 338.858 456.969 345.579 456.969 345.579C456.969 345.579 468.47 326.642 475.883 301.47C475.883 301.47 474.051 327.418 472.401 339.246C470.763 351.062 478.236 325.55 483.453 309.78C488.354 294.992 488.536 289.363 486.668 278.833C488.051 286.257 489.094 293.33 488.56 298.498C487.481 309.028 484.12 335.194 481.415 350.54Z" fill="#2FC5E3"/>
<path opacity="0.4" d="M384.081 400.557C388.279 407.229 398.554 416.049 404.681 440.444C410.808 464.84 406.95 491.541 406.95 491.541L384.081 400.557Z" fill="#92E3A9"/>
<path opacity="0.2" d="M351.458 262.044C351.458 262.044 329.973 272.925 328.274 291.122C322.063 277.256 330.143 282.266 325.278 246.589C325.278 246.589 328.857 238.315 339.06 244.927C339.848 245.436 340.6 245.994 341.34 246.589H341.353C343.403 248.239 345.223 250.192 346.775 252.387L351.458 262.044Z" fill="black" fill-opacity="0.7"/>
<path d="M412.215 499.426C412.215 499.426 397.232 419.785 388.279 407.242C379.337 394.698 380.975 389.53 376.632 381.075C372.289 372.619 339.108 352.045 337.64 340.023C336.172 328.013 334.486 304.988 328.274 291.122C322.063 277.244 330.143 282.267 325.266 246.589C325.266 246.589 328.869 238.327 339.06 244.927C349.25 251.538 354.625 264.761 352.841 279.404C352.841 279.404 360.509 305.667 364.549 311.648C368.601 317.641 385.282 283.273 384.202 279.258C383.122 275.243 379.92 241.081 379.422 234.858C379.422 234.858 367.278 216.868 366.029 208.412C364.779 199.945 364.888 191.028 369.972 187.413C382.006 178.848 378.488 192.654 383.875 198.38C389.261 204.106 397.523 213.447 402.206 216.382C406.889 219.318 410.989 231.51 410.989 231.51C410.989 231.51 404.147 206.35 404.001 201.485C403.856 196.621 400.131 170.963 406.44 161.768C412.748 152.572 421.144 159.706 421.908 161.513C422.684 163.333 422.927 188.189 425.147 195.104C427.367 202.031 436.648 230.867 436.648 230.867C436.648 230.867 437.049 202.82 439.135 190.264C441.234 177.708 446.693 167.882 452.019 167.336C457.357 166.778 462.295 172.662 462.295 172.662C462.295 172.662 460.184 192.678 460.779 197.3C461.373 201.922 459.917 218.614 462.453 227.591C462.453 227.591 462.149 203.681 465.874 200.624C469.598 197.567 472.777 196.099 474.851 198.161C476.938 200.224 477.387 214.381 479.522 222.897C481.645 231.413 481.378 242.986 482.774 256.269C484.169 269.553 489.664 287.992 488.573 298.522C487.481 309.052 484.108 335.207 481.403 350.565C478.697 365.923 471.806 386.934 471.806 386.934C471.806 386.934 474.949 398.155 474.33 408.164C473.711 418.172 498.339 484.796 498.339 484.796" stroke="#263238" stroke-miterlimit="10" stroke-linecap="round" stroke-linejoin="round"/>
<path d="M436.636 230.842C439.148 236.738 445.347 261.631 447.567 265.077C449.787 268.522 452.298 269.565 452.298 269.565" stroke="#263238" stroke-miterlimit="10" stroke-linecap="round" stroke-linejoin="round"/>
<path d="M462.453 227.567C462.453 227.567 461.919 232.662 464.673 248.93C467.427 265.186 468.774 272.113 470.314 275.74" stroke="#263238" stroke-miterlimit="10" stroke-linecap="round" stroke-linejoin="round"/>
<path d="M410.989 231.485C414.362 241.397 416.255 257.191 418.171 261.947C420.088 266.702 421.799 267.685 421.799 267.685" stroke="#263238" stroke-miterlimit="10" stroke-linecap="round" stroke-linejoin="round"/>
<path d="M416.437 255.262C416.437 255.262 419.967 257.883 421.095 261.146" stroke="#263238" stroke-miterlimit="10" stroke-linecap="round" stroke-linejoin="round"/>
<path d="M364.561 311.648C364.561 311.648 366.405 324.786 374.643 323.743" stroke="#263238" stroke-miterlimit="10" stroke-linecap="round" stroke-linejoin="round"/>
<path d="M384.214 279.258C384.214 279.258 386.349 294.871 382.843 301.506" stroke="#263238" stroke-miterlimit="10" stroke-linecap="round" stroke-linejoin="round"/>
<path d="M450.005 279.403C450.005 279.403 455.537 282.788 451.837 292.723C448.137 302.659 441.707 342.74 441.707 342.74" stroke="#263238" stroke-miterlimit="10" stroke-linecap="round" stroke-linejoin="round"/>
<path d="M474.087 289.885C476.404 298.862 476.611 299.092 472.85 310.119C469.077 321.147 463.011 348.151 463.011 348.151" stroke="#263238" stroke-miterlimit="10" stroke-linecap="round" stroke-linejoin="round"/>
<path d="M471.818 386.91C471.818 386.91 468.203 379.607 471.187 373.602" stroke="#263238" stroke-miterlimit="10" stroke-linecap="round" stroke-linejoin="round"/>
<path d="M388.278 407.241C388.278 407.241 397.426 420.088 401.405 434.464" stroke="#263238" stroke-miterlimit="10" stroke-linecap="round" stroke-linejoin="round"/>
<path d="M455.586 182.051L458.061 179.601L459.177 179.285L459.104 180.498L456.836 183.398L455.586 182.051Z" fill="#757575" stroke="#263238" stroke-miterlimit="10" stroke-linecap="round" stroke-linejoin="round"/>
<path d="M457.588 183.398L453.572 192.532L345.356 336.808L333.297 329.129L349.663 308.603L446.863 186.685L455.44 181.238C455.428 181.238 457.26 181.711 457.588 183.398Z" fill="#2FC5E3"/>
<path opacity="0.3" d="M457.588 183.398L453.572 192.532L345.356 336.808L333.297 329.129L349.663 308.603C357.184 307.827 358.434 312.267 358.434 312.267L451.667 190.591C450.758 187.316 446.863 186.685 446.863 186.685L455.44 181.238C455.428 181.238 457.26 181.711 457.588 183.398Z" fill="black" fill-opacity="0.7"/>
<path d="M457.588 183.398L453.572 192.532L345.356 336.808L333.297 329.129L349.663 308.603L446.863 186.685L455.44 181.238C455.428 181.238 457.26 181.711 457.588 183.398Z" stroke="#263238" stroke-miterlimit="10" stroke-linecap="round" stroke-linejoin="round"/>
<path d="M380.647 294.095C380.647 294.095 368.576 318.066 356.954 335.025L348.656 337.172C348.656 337.172 329.609 356.097 317.986 365.547C317.986 365.547 315.002 363.812 312.309 360.779C312.309 360.779 328.808 329.093 347.066 309.04C347.066 309.04 349.723 309.853 353.06 312.218C355.037 313.626 357.269 315.567 359.307 318.211L379.653 292.615L380.647 294.095Z" fill="#2FC5E3"/>
<path opacity="0.3" d="M380.647 294.094C380.647 294.094 368.576 318.065 356.954 335.025L348.656 337.172C348.656 337.172 329.609 356.097 317.986 365.547L318.302 360.403C330.907 341.151 346.921 320.152 353.047 312.218C355.025 313.625 357.257 315.566 359.295 318.211L347.988 333.302L354.467 332.138L379.64 292.614L380.647 294.094Z" fill="black" fill-opacity="0.7"/>
<path d="M380.647 294.095C380.647 294.095 368.576 318.066 356.954 335.025L348.656 337.172C348.656 337.172 329.609 356.097 317.986 365.547C317.986 365.547 315.002 363.812 312.309 360.779C312.309 360.779 328.808 329.093 347.066 309.04C347.066 309.04 349.723 309.853 353.06 312.218C355.037 313.626 357.269 315.567 359.307 318.211L379.653 292.615L380.647 294.095Z" stroke="#263238" stroke-miterlimit="10" stroke-linecap="round" stroke-linejoin="round"/>
<path d="M421.799 267.685L387.999 300.463L382.601 305.704C386.301 296.193 384.505 281.502 384.275 279.707C384.275 279.695 384.275 279.683 384.275 279.683C384.263 279.585 384.251 279.525 384.251 279.525C384.251 279.44 384.239 279.331 384.226 279.27C384.02 278.482 383.717 276.516 383.377 273.835C383.304 273.241 383.232 272.61 383.147 271.943C383.062 271.276 382.989 270.584 382.904 269.868C382.856 269.529 382.819 269.177 382.783 268.825C382.771 268.68 382.758 268.534 382.734 268.401C382.589 267.03 382.419 265.574 382.261 264.058C382.225 263.645 382.176 263.233 382.128 262.82C382.055 262.105 381.982 261.377 381.909 260.637C381.897 260.527 381.885 260.406 381.873 260.273C381.836 259.86 381.776 259.436 381.739 258.987C381.642 258.138 381.57 257.276 381.472 256.415C381.4 255.675 381.327 254.935 381.254 254.195C381.121 252.8 380.975 251.405 380.854 250.058C380.745 249.051 380.648 248.057 380.563 247.098C380.538 246.88 380.526 246.662 380.502 246.443C379.992 241.105 379.592 236.726 379.446 234.846C379.446 234.846 367.315 216.867 366.053 208.4C364.803 199.932 364.913 191.016 369.996 187.401C382.031 178.824 378.5 192.629 383.887 198.355C389.273 204.093 397.547 213.422 402.218 216.358C406.889 219.306 411.001 231.486 411.001 231.486C414.362 241.397 416.267 257.179 418.184 261.947C420.088 266.702 421.799 267.685 421.799 267.685Z" fill="white"/>
<path d="M416.437 255.262C416.437 255.262 419.967 257.883 421.095 261.146" stroke="#263238" stroke-miterlimit="10" stroke-linecap="round" stroke-linejoin="round"/>
<path opacity="0.4" d="M383.874 198.356C389.237 204.082 397.474 213.363 402.157 216.335C401.502 216.007 392.876 211.798 388.06 216.48C383.049 221.357 379.422 234.859 379.422 234.859C379.422 234.859 367.29 216.881 366.028 208.413C364.779 199.945 364.888 191.029 369.971 187.414C382.006 178.837 378.488 192.643 383.874 198.356Z" fill="#2FC5E3"/>
<path opacity="0.4" d="M387.987 300.463L382.589 305.704C386.289 296.193 384.493 281.502 384.263 279.707C384.263 279.695 384.263 279.682 384.263 279.682C384.263 279.513 384.238 279.379 384.214 279.27C384.008 278.481 383.705 276.516 383.365 273.835C383.292 273.241 383.219 272.61 383.134 271.943C383.05 271.276 382.977 270.584 382.892 269.868C382.843 269.529 382.807 269.177 382.771 268.825C382.758 268.68 382.746 268.534 382.722 268.4C382.576 267.018 382.419 265.574 382.249 264.058C382.212 263.645 382.164 263.233 382.115 262.82C382.043 262.104 381.97 261.377 381.897 260.637C381.885 260.527 381.873 260.406 381.861 260.273C381.824 259.86 381.764 259.436 381.727 258.987C381.63 258.138 381.557 257.276 381.46 256.415C381.387 255.675 381.315 254.935 381.242 254.195C381.108 252.8 380.963 251.405 380.842 250.058C380.745 249.051 380.647 248.044 380.55 247.098C380.526 246.88 380.514 246.661 380.49 246.443C380.829 248.032 386.98 277.317 390.486 284.135C391.797 286.731 390.571 293.379 387.987 300.463Z" fill="#92E3A9"/>
<path d="M421.8 267.685C421.8 267.685 420.09 266.702 418.173 261.947C416.256 257.191 414.351 241.397 410.991 231.485C410.991 231.485 406.878 219.294 402.207 216.358C397.536 213.422 389.275 204.081 383.876 198.355C378.489 192.629 382.008 178.824 369.973 187.389C364.89 191.004 364.792 199.92 366.03 208.388C367.28 216.855 379.424 234.834 379.424 234.834C379.921 241.069 383.124 275.23 384.203 279.234" stroke="#263238" stroke-miterlimit="10" stroke-linecap="round" stroke-linejoin="round"/>
<path d="M384.214 279.258C384.214 279.258 386.349 294.871 382.843 301.506" stroke="#263238" stroke-miterlimit="10" stroke-linecap="round" stroke-linejoin="round"/>
<path opacity="0.2" d="M176.711 298.364C176.711 298.364 184.39 334.018 167.757 359.966C151.125 385.915 138.326 392.83 132.563 400.569C126.8 408.309 104.271 451.581 104.271 451.581L77.9453 373.614L104.271 277.159L176.711 298.364Z" fill="black" fill-opacity="0.7"/>
<path d="M331.877 271.106L168.631 339.804L151.804 346.889L120.092 271.542L46.4512 96.5749L226.524 20.7916L331.877 271.106Z" fill="white"/>
<path d="M179.999 53.3516L102.27 86.0693C100.814 86.688 100.122 88.3621 100.741 89.8178C101.36 91.2736 103.034 91.965 104.49 91.3464L182.219 58.6408C183.674 58.0221 184.366 56.348 183.747 54.8923C183.141 53.4244 181.454 52.745 179.999 53.3516Z" fill="#263238"/>
<path d="M165.137 72.3854L126.267 88.7382C125.539 89.0415 125.199 89.8907 125.503 90.6185C125.806 91.3464 126.655 91.6861 127.383 91.3828L166.253 75.03C166.981 74.7267 167.321 73.8776 167.018 73.1497C166.702 72.4218 165.865 72.0822 165.137 72.3854Z" fill="#263238"/>
<path d="M229.084 172.018C229.084 172.018 230.722 184.89 225.93 186.915C221.55 188.759 215.788 181.845 210.753 183.968C205.718 186.091 209.685 204.336 204.833 206.386C199.98 208.436 194.132 200.927 189.947 202.686C185.761 204.445 188.297 213.834 183.978 215.654C180.411 217.158 175.316 209.686 171.239 208.048C170.378 207.696 169.565 207.611 168.813 207.927C164.543 209.722 166.666 229.338 162.978 230.879C161.752 231.4 160.685 231.485 159.702 231.413C158.246 231.315 156.96 230.879 155.541 231.024C155.043 231.073 154.534 231.194 153.988 231.425C150.846 232.747 151.27 243.071 148.395 244.284C145.52 245.497 142.681 243.993 139.612 245.291C136.542 246.589 136.591 251.951 132.017 253.879L133.958 258.477L245.705 211.457" fill="#BFBFBF"/>
<path d="M229.084 172.018C229.084 172.018 230.722 184.89 225.93 186.915C221.55 188.759 215.788 181.845 210.753 183.968C205.718 186.091 209.685 204.336 204.833 206.386C199.98 208.436 194.132 200.927 189.947 202.686C185.761 204.445 188.297 213.834 183.978 215.654C180.411 217.158 175.316 209.686 171.239 208.048C170.378 207.696 169.565 207.611 168.813 207.927C164.543 209.722 166.666 229.338 162.978 230.879C161.752 231.4 160.685 231.485 159.702 231.413C158.246 231.315 156.96 230.879 155.541 231.024C155.043 231.073 154.534 231.194 153.988 231.425C150.846 232.747 151.27 243.071 148.395 244.284C145.52 245.497 142.681 243.993 139.612 245.291C136.542 246.589 136.591 251.951 132.017 253.879L133.958 258.477L245.705 211.457" stroke="#263238" stroke-miterlimit="10"/>
<path d="M111.308 204.724L133.934 258.477L250.934 209.249" stroke="#263238" stroke-miterlimit="10" stroke-linecap="round" stroke-linejoin="round"/>
<path d="M238.074 193.381C238.074 193.381 237.528 192.702 236.691 191.901C235.247 190.506 232.954 188.735 231.207 189.463C229.497 190.179 229.351 193.017 229.388 196.038C229.424 199.726 229.752 203.681 227.895 204.469C226.318 205.136 224.911 204.13 223.455 203.05C221.793 201.812 220.095 200.454 218.044 201.315C214.599 202.771 215.642 207.259 214.429 211.105C213.81 213.07 212.597 214.866 209.892 216.006C206.907 217.255 203.886 216.03 201.048 214.089C196.243 210.814 191.924 205.5 189.134 206.677C184.682 208.545 189.595 220.591 184.803 222.605C182.134 223.733 176.602 215.302 171.227 208.06C166.981 202.322 162.832 197.336 160.272 198.404C154.498 200.83 164.009 229.617 159.811 231.388C159.775 231.4 159.726 231.425 159.678 231.437C157.931 232.128 156.645 231.691 155.517 231.049C154 230.187 152.775 228.974 151.101 229.678C148.007 230.976 149.827 242.258 146.418 243.701C143.009 245.133 140.971 243.058 137.137 244.672C133.898 246.03 131.969 253.891 131.969 253.891L133.91 258.489L245.656 211.469" fill="#757575"/>
<path d="M238.074 193.381C238.074 193.381 237.528 192.702 236.691 191.901C235.247 190.506 232.954 188.735 231.207 189.463C229.497 190.179 229.351 193.017 229.388 196.038C229.424 199.726 229.752 203.681 227.895 204.469C226.318 205.136 224.911 204.13 223.455 203.05C221.793 201.812 220.095 200.454 218.044 201.315C214.599 202.771 215.642 207.259 214.429 211.105C213.81 213.07 212.597 214.866 209.892 216.006C206.907 217.255 203.886 216.03 201.048 214.089C196.243 210.814 191.924 205.5 189.134 206.677C184.682 208.545 189.595 220.591 184.803 222.605C182.134 223.733 176.602 215.302 171.227 208.06C166.981 202.322 162.832 197.336 160.272 198.404C154.498 200.83 164.009 229.617 159.811 231.388C159.775 231.4 159.726 231.425 159.678 231.437C157.931 232.128 156.645 231.691 155.517 231.049C154 230.187 152.775 228.974 151.101 229.678C148.007 230.976 149.827 242.258 146.418 243.701C143.009 245.133 140.971 243.058 137.137 244.672C133.898 246.03 131.969 253.891 131.969 253.891L133.91 258.489L245.656 211.469" stroke="#263238" stroke-miterlimit="10" stroke-linecap="round" stroke-linejoin="round"/>
<path d="M214.429 231.764L175.558 248.117C174.83 248.42 174.491 249.27 174.794 249.997C175.097 250.725 175.947 251.065 176.674 250.762L215.545 234.409C216.273 234.106 216.613 233.256 216.309 232.529C215.994 231.801 215.157 231.461 214.429 231.764Z" fill="#263238"/>
<path d="M247.379 172.504L243.618 174.081C243.23 174.239 242.781 174.057 242.623 173.68L241.046 169.92C240.888 169.532 241.07 169.083 241.447 168.925L245.207 167.348C245.596 167.19 246.044 167.372 246.202 167.748L247.779 171.509C247.949 171.897 247.767 172.346 247.379 172.504Z" fill="#BFBFBF" stroke="#263238" stroke-miterlimit="10"/>
<path d="M265.516 161.028L249.987 167.566C249.66 167.7 249.284 167.554 249.15 167.227C249.017 166.899 249.162 166.523 249.49 166.39L265.019 159.851C265.346 159.717 265.722 159.863 265.856 160.191C265.989 160.518 265.844 160.882 265.516 161.028Z" fill="#263238"/>
<path d="M261.864 165.589L251.067 170.126C250.739 170.259 250.363 170.114 250.23 169.786C250.096 169.459 250.242 169.083 250.57 168.949L261.367 164.412C261.695 164.279 262.071 164.424 262.204 164.752C262.338 165.079 262.192 165.455 261.864 165.589Z" fill="#263238"/>
<path d="M252.244 184.052L248.483 185.63C248.095 185.787 247.646 185.605 247.488 185.229L245.911 181.469C245.753 181.08 245.935 180.631 246.311 180.474L250.072 178.897C250.46 178.739 250.909 178.921 251.067 179.297L252.644 183.058C252.814 183.446 252.632 183.895 252.244 184.052Z" fill="#757575" stroke="#263238" stroke-miterlimit="10" stroke-linecap="round" stroke-linejoin="round"/>
<path d="M270.381 172.564L254.852 179.103C254.525 179.237 254.149 179.091 254.015 178.763C253.882 178.436 254.027 178.06 254.355 177.926L269.884 171.388C270.211 171.254 270.587 171.4 270.721 171.727C270.854 172.055 270.709 172.431 270.381 172.564Z" fill="#263238"/>
<path d="M266.717 177.138L255.92 181.675C255.592 181.808 255.216 181.663 255.082 181.335C254.949 181.008 255.095 180.631 255.422 180.498L266.22 175.961C266.547 175.828 266.923 175.973 267.057 176.301C267.202 176.628 267.045 177.004 266.717 177.138Z" fill="#263238"/>
<path d="M290.799 220.167L164.64 273.253C163.912 273.556 163.572 274.405 163.876 275.133C164.179 275.861 165.028 276.201 165.756 275.898L291.915 222.812C292.643 222.508 292.983 221.659 292.679 220.931C292.376 220.203 291.527 219.864 290.799 220.167Z" fill="#263238"/>
<path d="M294.803 229.666L148.104 291.401C147.376 291.704 147.037 292.554 147.34 293.281C147.643 294.009 148.492 294.349 149.22 294.046L295.919 232.31C296.647 232.007 296.986 231.158 296.683 230.43C296.368 229.702 295.531 229.362 294.803 229.666Z" fill="#263238"/>
<path d="M298.794 239.164L152.095 300.9C151.368 301.203 151.028 302.052 151.331 302.78C151.634 303.508 152.484 303.848 153.212 303.544L299.91 241.809C300.638 241.506 300.978 240.656 300.674 239.929C300.371 239.201 299.522 238.861 298.794 239.164Z" fill="#263238"/>
<path d="M302.797 248.675L156.099 310.411C155.371 310.714 155.031 311.563 155.335 312.291C155.638 313.019 156.487 313.358 157.215 313.055L303.913 251.32C304.641 251.017 304.981 250.167 304.678 249.439C304.362 248.699 303.525 248.36 302.797 248.675Z" fill="#263238"/>
<path d="M245.171 284.098L160.091 319.897C159.363 320.201 159.023 321.05 159.326 321.778C159.63 322.505 160.479 322.845 161.207 322.542L246.287 286.743C247.015 286.439 247.355 285.59 247.052 284.862C246.748 284.135 245.899 283.795 245.171 284.098Z" fill="#263238"/>
<path d="M198.318 98.9161C198.318 98.9161 199.955 111.787 195.163 113.813C190.784 115.657 185.021 108.742 179.986 110.865C174.952 112.988 178.919 131.234 174.066 133.284C169.213 135.322 163.366 127.825 159.18 129.584C154.995 131.343 157.53 140.732 153.211 142.552C149.644 144.056 144.549 136.583 140.473 134.946C139.611 134.594 138.786 134.509 138.046 134.824C133.776 136.62 135.899 156.236 132.211 157.776C130.986 158.298 129.918 158.383 128.935 158.31C127.48 158.213 126.194 157.776 124.774 157.922C124.277 157.971 123.767 158.092 123.221 158.322C120.079 159.645 120.504 169.968 117.628 171.181C114.753 172.394 111.914 170.89 108.845 172.188C105.776 173.486 105.824 178.848 101.25 180.777L103.192 185.375L214.938 138.354" fill="#BFBFBF"/>
<path d="M198.318 98.9161C198.318 98.9161 199.955 111.787 195.163 113.813C190.784 115.657 185.021 108.742 179.986 110.865C174.952 112.988 178.919 131.234 174.066 133.284C169.213 135.322 163.366 127.825 159.18 129.584C154.995 131.343 157.53 140.732 153.211 142.552C149.644 144.056 144.549 136.583 140.473 134.946C139.611 134.594 138.786 134.509 138.046 134.824C133.776 136.62 135.899 156.236 132.211 157.776C130.986 158.298 129.918 158.383 128.935 158.31C127.48 158.213 126.194 157.776 124.774 157.922C124.277 157.971 123.767 158.092 123.221 158.322C120.079 159.645 120.504 169.968 117.628 171.181C114.753 172.394 111.914 170.89 108.845 172.188C105.776 173.486 105.824 178.848 101.25 180.777L103.192 185.375L214.938 138.354" stroke="#263238" stroke-miterlimit="10"/>
<path d="M205.536 116.082C205.536 116.082 206.555 122.317 204.092 123.36C202.042 124.222 200.78 123.021 198.621 122.948C197.759 122.912 196.752 123.057 195.491 123.591C193.513 124.416 193.04 127.085 192.688 129.96C192.251 133.49 192.033 137.311 189.449 138.403C187.641 139.167 185.688 138.719 183.674 138.015C180.471 136.899 177.087 135.128 173.835 136.499C172.258 137.166 171.154 138.876 170.293 140.999C168.267 146.009 167.636 153.264 165.44 154.186C162.322 155.496 156.608 150.134 153.842 151.299C151.076 152.463 152.204 157.279 149.96 158.225C147.715 159.172 146.429 156.381 142.474 158.043C138.519 159.705 140.448 165.553 134.868 167.894C129.287 170.235 126.849 165.929 121.45 168.197C116.051 170.466 117.034 174.554 113.237 176.155C109.439 177.757 107.826 174.979 105.108 176.119C102.464 177.235 101.748 181.566 101.699 181.845L103.191 185.387L214.938 138.367" fill="#2FC5E3"/>
<path d="M205.536 116.082C205.536 116.082 206.555 122.317 204.092 123.36C202.042 124.222 200.78 123.021 198.621 122.948C197.759 122.912 196.752 123.057 195.491 123.591C193.513 124.416 193.04 127.085 192.688 129.96C192.251 133.49 192.033 137.311 189.449 138.403C187.641 139.167 185.688 138.719 183.674 138.015C180.471 136.899 177.087 135.128 173.835 136.499C172.258 137.166 171.154 138.876 170.293 140.999C168.267 146.009 167.636 153.264 165.44 154.186C162.322 155.496 156.608 150.134 153.842 151.299C151.076 152.463 152.204 157.279 149.96 158.225C147.715 159.172 146.429 156.381 142.474 158.043C138.519 159.705 140.448 165.553 134.868 167.894C129.287 170.235 126.849 165.929 121.45 168.197C116.051 170.466 117.034 174.554 113.237 176.155C109.439 177.757 107.826 174.979 105.108 176.119C102.464 177.235 101.748 181.566 101.699 181.845L103.191 185.387L214.938 138.367" stroke="#263238" stroke-miterlimit="10"/>
<path d="M80.5415 131.622L103.167 185.375L220.167 136.134" stroke="#263238" stroke-miterlimit="10" stroke-linecap="round" stroke-linejoin="round"/>
<path d="M183.311 157.825L144.44 174.178C143.712 174.481 143.373 175.33 143.676 176.058C143.979 176.786 144.828 177.126 145.556 176.822L184.427 160.47C185.155 160.166 185.494 159.317 185.191 158.589C184.876 157.861 184.039 157.522 183.311 157.825Z" fill="#263238"/>
<path d="M214.647 94.743L210.898 96.3201C210.51 96.4778 210.061 96.2958 209.904 95.9197L208.326 92.1591C208.169 91.7709 208.351 91.322 208.727 91.1643L212.488 89.5873C212.876 89.4296 213.325 89.6115 213.482 89.9876L215.06 93.7483C215.217 94.1243 215.035 94.5732 214.647 94.743Z" fill="#BFBFBF" stroke="#263238" stroke-miterlimit="10"/>
<path d="M232.784 83.2548L217.256 89.7935C216.928 89.9269 216.552 89.7814 216.418 89.4538C216.285 89.1263 216.431 88.7502 216.758 88.6168L232.287 82.0781C232.614 81.9446 232.991 82.0902 233.124 82.4178C233.27 82.7332 233.112 83.1092 232.784 83.2548Z" fill="#263238"/>
<path d="M229.132 87.8283L218.335 92.3653C218.008 92.4988 217.631 92.3532 217.498 92.0257C217.365 91.6981 217.51 91.3221 217.838 91.1886L228.635 86.6516C228.963 86.5181 229.339 86.6637 229.472 86.9912C229.606 87.3067 229.46 87.6827 229.132 87.8283Z" fill="#263238"/>
<path d="M219.512 106.28L215.751 107.857C215.363 108.014 214.914 107.832 214.756 107.456L213.179 103.696C213.021 103.308 213.203 102.859 213.579 102.701L217.34 101.124C217.728 100.966 218.177 101.148 218.335 101.524L219.912 105.285C220.082 105.673 219.9 106.122 219.512 106.28Z" fill="#92E3A9" stroke="#263238" stroke-miterlimit="10"/>
<path d="M237.649 94.8036L222.12 101.342C221.793 101.476 221.417 101.33 221.283 101.003C221.15 100.675 221.295 100.299 221.623 100.166L237.152 93.6269C237.479 93.4935 237.855 93.639 237.989 93.9666C238.122 94.282 237.977 94.6581 237.649 94.8036Z" fill="#263238"/>
<path d="M233.985 99.3649L223.188 103.902C222.86 104.035 222.484 103.89 222.351 103.562C222.217 103.235 222.363 102.859 222.69 102.725L233.488 98.1882C233.815 98.0548 234.191 98.2003 234.325 98.5279C234.458 98.8554 234.313 99.2315 233.985 99.3649Z" fill="#263238"/>
<path opacity="0.2" d="M168.631 339.804L151.804 346.889L120.091 271.542C122.081 269.65 124.41 266.411 125.393 261.146C127.286 251.053 125.951 218.602 151.222 215.254C176.48 211.906 155.177 268.728 156.341 279.561C157.409 289.424 171.809 318.09 168.631 339.804Z" fill="black" fill-opacity="0.7"/>
<path d="M331.877 271.106L168.631 339.804L151.804 346.889L120.092 271.542L46.4512 96.5749L226.524 20.7916L331.877 271.106Z" stroke="#263238" stroke-miterlimit="10" stroke-linecap="round" stroke-linejoin="round"/>
<path d="M158.465 283.663C161.291 273.982 172.356 242.89 170.912 229.145C170.779 227.908 170.512 226.792 170.136 225.797C166.253 215.534 150.385 216.529 144.283 225.033C137.586 234.386 132.126 251.224 131.653 261.463C131.398 267.128 128.972 272.32 126.849 275.85C126.837 275.874 126.837 275.887 126.825 275.899C125.114 278.737 123.61 280.46 123.61 280.46L87.3962 194.547C87.3962 194.547 81.5487 199.278 77.9212 205.126C76.4533 207.467 75.3614 210.014 75.143 212.489C74.403 220.945 64.8188 255.712 60.8274 270.391C60.7547 270.707 60.6576 270.998 60.5848 271.289C56.7511 285.385 66.8691 337.743 63.9817 352.956C61.0822 368.156 59.2867 367.829 58.8742 378.625C58.5709 386.51 47.2883 410.482 34.6469 435.096C27.4042 449.204 19.7004 463.507 13.3555 475.092L105.946 471.247C107.547 460.001 109.197 448.125 110.702 436.636C111.32 431.905 112.327 427.041 113.468 422.431C113.468 422.431 113.468 422.431 113.468 422.419C115.506 414.17 118.005 406.709 119.509 402.342C121.875 395.524 124.338 382.811 124.338 382.811C135.111 371.407 149.232 353.502 153.321 341.358C153.333 341.334 153.345 341.298 153.345 341.273C154.376 338.204 154.752 335.511 154.267 333.4C153.855 331.653 153.636 329.385 153.539 326.777C153.551 326.765 153.551 326.765 153.539 326.753C153.09 313.614 156.087 291.742 158.465 283.663Z" fill="white"/>
<path opacity="0.4" d="M126.837 275.885C123.961 281.648 120.504 287.24 118.296 293.706C116.088 300.16 113.722 301.082 107.232 306.128C100.753 311.187 96.0218 302.853 96.0218 302.853C96.0218 302.853 104.599 293.949 101.748 288.987C98.8849 284.025 88.221 271.688 88.864 264.882C89.4827 258.077 82.3977 242.816 82.3977 242.816C82.3977 242.816 98.5695 233.329 95.4273 222.241C93.7167 216.164 85.2487 209.71 77.9453 205.112C81.5727 199.265 87.4203 194.534 87.4203 194.534L123.634 280.447C123.634 280.447 125.126 278.724 126.837 275.885Z" fill="#2FC5E3"/>
<path opacity="0.4" d="M68.1189 328.583C68.3372 329.311 73.6025 346.695 69.1622 353.937C64.6127 361.337 60.1604 370.787 62.332 380.614C64.0668 388.475 49.5086 416.861 34.6592 435.082C47.3006 410.468 58.5832 386.497 58.8865 378.612C59.3111 367.815 61.0945 368.143 63.994 352.942C66.8814 337.73 56.7756 285.372 60.5971 271.276C60.6699 270.984 60.7669 270.693 60.8397 270.378C63.6665 286.355 70.2541 318.175 72.0617 328.401C74.3668 341.43 68.3615 329.105 68.1189 328.583Z" fill="#2FC5E3"/>
<path opacity="0.4" d="M101.457 433.481C112.218 387.152 148.432 351.632 153.333 341.345C149.244 353.476 135.123 371.394 124.35 382.797C124.35 382.797 121.887 395.499 119.521 402.328C118.005 406.696 115.518 414.156 113.48 422.405C113.48 422.418 113.48 422.418 113.48 422.418C102.961 434.803 101.457 433.481 101.457 433.481Z" fill="#92E3A9"/>
<path opacity="0.4" d="M158.465 283.661C156.087 291.729 153.078 313.601 153.551 326.739C151.647 318.49 147.983 308.009 147.376 293.415C146.345 268.667 160.37 277.547 155.48 265.356C150.591 253.176 136.652 268.789 143.518 242.986C148.529 224.146 162.808 224.316 170.136 225.784C170.512 226.778 170.779 227.895 170.912 229.132C172.368 242.889 161.304 273.981 158.465 283.661Z" fill="#2FC5E3"/>
<path d="M27.4526 449.531C39.0628 428.313 50.3576 406.489 58.4859 382.955C59.4565 379.57 58.1584 375.167 59.1411 371.782C70.1447 341.212 57.661 309.392 59.7113 278.093C61.434 265.756 65.3768 253.321 69.3197 240.899C71.1759 231.898 71.8795 221.841 74.8397 212.791C77.8969 205.974 80.9178 198.04 87.4204 194.546C99.7949 222.909 112.133 251.38 123.634 280.459C128.826 277.45 129.664 270.73 130.549 265.113C133.34 251.611 136.166 239.237 141.274 227.87C146.466 218.736 159.69 214.841 167.806 222.302C170.123 224.437 171.373 227.725 171.519 231.073C169.941 246.746 165.016 262.565 160.054 277.268C158.101 284.037 156.111 289.703 155.274 296.423C155.371 298.656 155.407 299.759 155.504 301.992C152.629 313.261 155.274 323.185 154.619 334.37C152.108 354.544 135.972 368.604 124.326 383.574C121.45 394.843 118.575 406.113 114.584 417.432C109.707 434.367 108.178 451.156 106.516 467.473" stroke="#263238" stroke-miterlimit="10" stroke-linecap="round" stroke-linejoin="round"/>
<path d="M123.634 280.447C123.634 280.447 119.825 287.762 118.308 293.706C116.792 299.65 109.112 298.789 105.145 302.489" stroke="#263238" stroke-miterlimit="10" stroke-linecap="round" stroke-linejoin="round"/>
<path d="M94.6631 269.99C94.6631 269.99 105.109 273.677 111.187 278.421C117.265 283.164 121.766 284.329 121.766 284.329" stroke="#263238" stroke-miterlimit="10" stroke-linecap="round" stroke-linejoin="round"/>
<path d="M88.0029 244.09C88.0029 244.09 96.4346 246.455 102.682 243.483C102.682 243.483 103.143 238.315 104.272 234.518" stroke="#263238" stroke-miterlimit="10" stroke-linecap="round" stroke-linejoin="round"/>
<path d="M104.696 244.696C104.696 244.696 104.781 245.873 109.088 245.922" stroke="#263238" stroke-miterlimit="10" stroke-linecap="round" stroke-linejoin="round"/>
<path d="M124.35 382.809C124.35 382.809 116.124 390.27 111.102 403.711" stroke="#263238" stroke-miterlimit="10" stroke-linecap="round" stroke-linejoin="round"/>
<path d="M60.1117 273.872C59.7356 281.138 68.2643 306.965 70.8605 319.788C73.4567 332.623 74.4151 341.697 74.4151 341.697" stroke="#263238" stroke-miterlimit="10" stroke-linecap="round" stroke-linejoin="round"/>
</svg>
