<svg width="219" height="150" viewBox="0 0 219 150" fill="none" xmlns="http://www.w3.org/2000/svg">
<path d="M30.3829 128.632C10.9257 120.54 14.6959 79.1556 28.6709 85.9507C33.853 88.4701 35.3631 96.3383 41.6089 97.8702C45.9049 99.3232 60.2023 94.7558 43.6118 67.705C7.49128 8.8101 128.303 -38.5617 109.88 45.4671C107.85 53.3685 115.576 56.2343 122.562 57.0317C240.907 70.5392 152.738 191.553 63.6721 135.07C48.7957 125.636 39.9325 132.603 30.3829 128.632Z" fill="url(#paint0_linear_32:449)"/>
<path d="M4.30286 120.578L8.2876 121.69L8.99212 120.368L9.01905 119.363L9.70562 118.711L9.75948 116.701L11.1326 115.397L13.8699 113.124L14.5295 113.477L15.8757 113.178L17.9175 111.892L20.3205 109.61L21.6577 109.646L25.0097 109.401L28.4067 107.481L31.4334 106.892L34.8303 104.972L38.842 105.08L40.8209 106.138L46.8384 106.3L49.8292 107.051L52.1155 109.124L53.787 109.169L55.1422 108.535L57.4823 108.598L59.2077 106.633L61.2225 106.351L62.1626 108.723L62.7594 111.421L65.0726 112.489L68.5144 108.894L71.5232 108.975L77.4689 111.817L78.8061 111.852L79.5286 109.86L81.5344 109.914L82.5194 110.611L84.155 111.996L85.5102 111.362L89.8561 111.479L90.1635 112.493L91.835 112.538L95.4137 116.321L96.4166 116.348L101.169 113.794L104.458 115.894L106.129 115.939L109.219 113.005L110.231 112.697L110.276 111.022L112.652 109.745L115.335 109.482L117.395 107.526L118.624 111.582L119.627 111.609L120.54 114.985L121.86 115.691L122.149 117.375L122.755 119.738L124.752 120.127L125.728 121.159L127.734 121.213L127.752 120.543L130.074 121.276L133.39 122.37L135.721 122.768L137.085 121.799L137.736 122.487L139.733 122.876L141.368 124.261L141.314 126.271L143.284 127.665L145.896 130.082L147.505 132.471L151.815 133.928L152.728 137.305L154.065 137.341L156.026 139.07L157.933 142.808L164.503 147.343L168.153 148.447L170.213 146.491L172.201 147.215L173.872 147.259L174.224 146.598L176.239 146.317L177.016 142.316L180.439 139.391L183.782 139.48L188.752 141.29L190.46 139.995L192.764 141.398L198.113 141.542L199.17 139.559L199.322 133.864L203.415 130.957L203.477 128.612L205.501 127.996L206.865 127.027L207.949 124.039L215.032 121.883L215.149 117.528L216.549 115.219L215.925 113.526L214.308 111.471L214.442 106.446L212.798 105.396L212.156 104.374L212.843 103.722L212.906 101.377L209.933 99.9559L209.381 95.5831L207.438 93.1843L204.79 92.1074L204.826 90.7675L206.543 89.1375L206.596 87.1276L202.295 85.3359L199.693 82.5841L201.427 80.2841L201.129 78.9352L200.171 77.2333L201.21 75.9203L201.245 74.5804L199.628 72.5255L203.693 70.6234L203.9 62.9188L199.933 61.136L197.014 57.7053L194.71 56.3025L194.835 51.6127L192.504 51.2148L190.833 51.1699L190.218 49.142L182.845 49.6143L180.198 48.5375L179.565 47.1796L177.559 47.1257L176.222 47.0897L175.282 44.7179L171.252 45.2801L170.205 46.928L167.53 46.8562L165.814 48.4862L164.757 50.4691L163.085 50.4242L161.133 48.3604L158.504 46.6136L157.537 45.2467L156.588 43.2098L154.988 40.485L152.675 39.4172L151.392 37.3713L151.789 35.0354L149.114 34.9635L147.813 33.5877L145.147 33.1808L143.864 31.1349L141.849 31.416L141.208 30.3931L138.551 29.6513L137.927 27.9584L136.265 27.5785L134.972 25.8676L132.686 23.7948L128.403 21.3331L126.678 23.2981L124.382 21.5603L116.233 26.0344L114.245 25.3106L112.502 27.9455L107.822 27.8198L105.04 31.7677L101.362 31.6689L100.649 33.3259L100.523 38.0157L103.054 43.4473L102.767 54.1668L103.518 63.5734L102.515 63.5464L96.6795 69.0885L94.2944 70.7005L91.9363 71.3076L91.5392 73.6435L86.4438 76.5236L81.0949 76.3799L79.116 75.321L78.14 74.2891L77.8506 72.6052L73.8569 71.8274L71.5526 70.4246L69.6815 65.3459L68.8042 60.6291L68.2434 56.5913L62.3336 52.4098L61.0771 49.359L56.812 46.2273L53.9109 42.1266L54.0905 35.4269L46.637 38.9141L41.5865 40.1193L37.494 43.0264L29.787 43.4897L25.9481 49.4206L21.3956 57.0085L20.3747 57.6515L19.9956 59.3175L18.9657 60.2955L18.8669 63.9803L18.5147 64.6413L18.3441 71.006L14.9382 73.2611L14.9113 74.2661L8.0905 79.1112L8.02766 81.4561L6.68146 81.7551L6.59169 85.105L6.44805 90.4647L5.07491 91.7688L5.02105 93.7787L4.33448 94.4307L4.26266 97.1106L5.56398 98.4864L2.79078 102.099L2.74589 103.774L2.0683 104.091L2.04137 105.096L2.67407 106.454L2.54839 111.144L1.82591 113.136L2.44964 114.829L3.71504 117.545L4.30286 120.578Z" fill="#8FD1DE" stroke="#2FC5E3" stroke-width="3" stroke-linejoin="round"/>
<path opacity="0.1" d="M156.839 108.52L164.534 76.6773C164.795 75.6035 163.825 74.6323 162.753 74.8931L156.108 76.5034V63.0079C156.108 61.8739 155.19 60.9547 154.057 60.9547H145.516C144.383 60.9547 143.466 61.8739 143.466 63.0079V79.567L138.161 80.8523V78.5332C138.161 77.3992 137.244 76.48 136.111 76.48H127.57C126.437 76.48 125.519 77.3992 125.519 78.5332V103.124L120.215 108.435V94.0581C120.215 92.9241 119.297 92.0049 118.165 92.0049H109.624C108.491 92.0049 107.573 92.9241 107.573 94.0581V121.095L102.269 126.406V109.583C102.269 108.449 101.351 107.53 100.219 107.53H91.6775C90.545 107.53 89.6271 108.449 89.6271 109.583V136.716H84.323V125.108C84.323 123.975 83.4051 123.055 82.2727 123.055H73.7311C72.5987 123.055 71.6808 123.975 71.6808 125.108V136.716H68.0252C67.4591 136.716 67 137.176 67 137.743C67 138.31 67.4591 138.77 68.0252 138.77H159.969C160.535 138.77 160.994 138.31 160.994 137.743C160.994 137.176 160.535 136.716 159.969 136.716H156.108V109.473C156.454 109.288 156.732 108.965 156.839 108.52ZM125.519 124.802V136.716H120.215V130.113L125.519 124.802ZM138.161 136.716V112.143L143.466 106.832V136.716H138.161V136.716Z" fill="#0000CC"/>
<path d="M83.8227 132.315H72.1807V120.181C72.1807 119.322 72.8754 118.628 73.731 118.628H82.2724C83.128 118.628 83.8227 119.322 83.8227 120.181V132.315Z" fill="#2FC5E3" stroke="#2FC5E3"/>
<path d="M101.769 132.315H90.127V104.656C90.127 103.797 90.8217 103.102 91.6773 103.102H100.219C101.074 103.102 101.769 103.797 101.769 104.656V132.315Z" fill="#2FC5E3" stroke="#2FC5E3"/>
<path d="M119.715 89.1304V132.314H108.073V89.1304C108.073 88.2725 108.768 87.5772 109.623 87.5772H118.165C119.02 87.5772 119.715 88.2725 119.715 89.1304Z" fill="#2FC5E3" stroke="#2FC5E3"/>
<path d="M137.662 73.6061V132.314H126.02V73.6061C126.02 72.7465 126.715 72.0529 127.57 72.0529H136.112C136.967 72.0529 137.662 72.7465 137.662 73.6061Z" fill="#2FC5E3" stroke="#2FC5E3"/>
<path d="M155.607 58.0798V132.314H143.966V58.0798C143.966 57.2216 144.66 56.5266 145.517 56.5266H154.056C154.913 56.5266 155.607 57.2216 155.607 58.0798Z" fill="#2FC5E3" stroke="#2FC5E3"/>
<path d="M164.535 71.7496L156.84 103.593C156.546 104.81 154.97 105.133 154.221 104.129L148.675 96.6878L112.595 132.816H90.9473L137.851 85.8469L130.419 80.293C129.416 79.5436 129.738 77.9647 130.954 77.6711L162.753 69.9654C163.825 69.7046 164.795 70.6758 164.535 71.7496Z" fill="white"/>
<path d="M164.868 69.6311C164.246 69.008 163.365 68.76 162.512 68.9675L157.132 70.2711V58.0798C157.132 56.3816 155.752 55 154.056 55H145.517C143.821 55 142.441 56.3816 142.441 58.0798V73.8312L139.187 74.6196V73.6061C139.187 71.9079 137.808 70.5263 136.112 70.5263H127.57C125.874 70.5263 124.494 71.9079 124.494 73.6061V97.7703L121.241 101.029V89.1304C121.241 87.4322 119.861 86.0506 118.165 86.0506H109.623C107.927 86.0506 106.548 87.4322 106.548 89.1304V115.742L90.6521 131.66V104.655C90.6521 104.089 91.112 103.629 91.6773 103.629H100.219C100.784 103.629 101.244 104.089 101.244 104.655V115.921C101.244 116.488 101.703 116.947 102.269 116.947C102.835 116.947 103.294 116.488 103.294 115.921V104.655C103.294 102.957 101.914 101.576 100.219 101.576H91.6773C89.9814 101.576 88.6017 102.957 88.6017 104.655V131.789H85.348V120.181C85.348 118.482 83.9683 117.101 82.2725 117.101H73.7311C72.0353 117.101 70.6556 118.482 70.6556 120.181V131.789H68.0252C67.4591 131.789 67 132.248 67 132.815C67 133.382 67.4591 133.842 68.0252 133.842H159.969C160.535 133.842 160.994 133.382 160.994 132.815C160.994 132.248 160.535 131.789 159.969 131.789H157.132V105.062C157.472 104.738 157.719 104.317 157.836 103.834L162.225 85.6699C162.358 85.1189 162.02 84.5641 161.47 84.4306C160.919 84.2972 160.366 84.6359 160.232 85.187L155.843 103.352C155.784 103.594 155.6 103.666 155.496 103.688C155.391 103.71 155.193 103.716 155.043 103.515L149.496 96.0737C149.318 95.8349 149.046 95.6852 148.749 95.6639C148.452 95.6425 148.16 95.7512 147.95 95.9618L112.171 131.789H93.4227L138.576 86.5729C138.786 86.3623 138.895 86.0703 138.873 85.773C138.852 85.4757 138.703 85.2024 138.464 85.0242L131.032 79.4705C130.831 79.3204 130.837 79.1214 130.858 79.0163C130.88 78.9116 130.952 78.7274 131.194 78.6689L162.994 70.963C163.207 70.9109 163.351 71.016 163.418 71.0829C163.485 71.1501 163.589 71.2942 163.538 71.5082L161.521 79.852C161.388 80.4031 161.726 80.9578 162.277 81.0913C162.828 81.2252 163.381 80.886 163.514 80.3349L165.53 71.9919C165.738 71.1367 165.49 70.2541 164.868 69.6311ZM144.492 58.0798C144.492 57.5137 144.951 57.0532 145.517 57.0532H154.056C154.622 57.0532 155.082 57.5137 155.082 58.0798V70.768L144.492 73.3343V58.0798ZM108.598 89.1304C108.598 88.5643 109.058 88.1038 109.623 88.1038H118.165C118.73 88.1038 119.19 88.5643 119.19 89.1304V103.082L108.598 113.689V89.1304ZM72.7059 131.789V120.181C72.7059 119.615 73.1658 119.154 73.7311 119.154H82.2727C82.838 119.154 83.2979 119.615 83.2979 120.181V131.789H72.7059ZM137.137 131.789H126.545V120.299L137.137 109.693V131.789ZM139.187 107.64L142.441 104.382V131.789H139.187V107.64ZM124.494 131.789H121.241V125.611L124.494 122.352V131.789ZM148.562 98.2528L153.4 104.743C153.816 105.302 154.422 105.647 155.082 105.731V131.789H144.492V102.328L148.562 98.2528ZM119.19 127.664V131.789H115.071L119.19 127.664ZM130.713 76.673C129.761 76.9032 129.047 77.6429 128.85 78.6036C128.653 79.5656 129.019 80.5281 129.805 81.1157L136.288 85.9598L126.545 95.7171V73.6061C126.545 73.0401 127.005 72.5795 127.57 72.5795H136.112C136.677 72.5795 137.137 73.0401 137.137 73.6061V75.1165L130.713 76.673Z" fill="#21ABB1"/>
<path d="M135.559 64.7531C135.297 64.7531 135.034 64.6529 134.834 64.4525L133.714 63.3307L132.593 64.4525C132.193 64.8533 131.544 64.8533 131.144 64.4525C130.743 64.0515 130.743 63.4015 131.144 63.0007L132.989 61.1528C133.389 60.752 134.038 60.752 134.439 61.1528L136.284 63.0007C136.684 63.4017 136.684 64.0517 136.284 64.4525C136.084 64.6529 135.821 64.7531 135.559 64.7531Z" fill="#2FC5E3"/>
<path d="M92.7924 85.2004C92.53 85.2004 92.2677 85.1002 92.0674 84.8998L90.9471 83.7779L89.8268 84.8998C89.4264 85.3006 88.7774 85.3006 88.377 84.8998C87.9766 84.4988 87.9766 83.8488 88.377 83.448L90.2223 81.6001C90.6227 81.1993 91.2717 81.1993 91.6721 81.6001L93.5174 83.448C93.9179 83.849 93.9179 84.499 93.5174 84.8998C93.3171 85.1002 93.0549 85.2004 92.7924 85.2004Z" fill="#2FC5E3"/>
<path d="M83.206 111.603C82.9436 111.603 82.6813 111.503 82.481 111.303L81.3607 110.181L80.2404 111.303C79.8399 111.704 79.191 111.704 78.7906 111.303C78.3901 110.902 78.3901 110.252 78.7906 109.851L80.6359 108.003C81.0363 107.602 81.6853 107.602 82.0857 108.003L83.931 109.851C84.3314 110.252 84.3314 110.902 83.931 111.303C83.7307 111.503 83.4684 111.603 83.206 111.603Z" fill="#2FC5E3"/>
<path d="M99.499 86.3297C99.2365 86.3297 98.9743 86.2295 98.774 86.0291C98.3735 85.6281 98.3735 84.978 98.774 84.5772L100.824 82.524C101.225 82.1233 101.874 82.1233 102.274 82.524C102.675 82.925 102.675 83.5751 102.274 83.9759L100.224 86.0291C100.024 86.2295 99.7614 86.3297 99.499 86.3297Z" fill="#2FC5E3"/>
<path d="M119.424 143.082C119.162 143.082 118.9 142.982 118.699 142.781C118.299 142.38 118.299 141.73 118.699 141.33L120.75 139.276C121.15 138.876 121.799 138.876 122.199 139.276C122.6 139.677 122.6 140.327 122.199 140.728L120.149 142.781C119.949 142.982 119.687 143.082 119.424 143.082Z" fill="#2FC5E3"/>
<defs>
<linearGradient id="paint0_linear_32:449" x1="87.5" y1="166.5" x2="89.3435" y2="-4.99499" gradientUnits="userSpaceOnUse">
<stop offset="0.263809" stop-color="#BDE1E8" stop-opacity="0.22"/>
<stop offset="1" stop-color="#ECFCFF"/>
</linearGradient>
</defs>
</svg>
