<svg width="159" height="150" viewBox="0 0 159 150" fill="none" xmlns="http://www.w3.org/2000/svg">
<path d="M58.8706 106.639C58.5706 106.789 58.2703 106.939 57.9703 107.089C57.8697 107.139 57.7853 107.262 57.7564 107.367C57.7256 107.479 57.7396 107.627 57.8033 107.726C57.8672 107.826 57.9629 107.913 58.0815 107.94C58.2082 107.969 58.3237 107.952 58.4405 107.893C58.7405 107.743 59.0408 107.593 59.3408 107.443C59.4414 107.393 59.5259 107.27 59.5548 107.165C59.5855 107.053 59.5715 106.905 59.5079 106.806C59.4439 106.707 59.3482 106.619 59.2296 106.592C59.1029 106.563 58.9874 106.58 58.8706 106.639Z" fill="url(#paint0_linear_32:470)"/>
<path d="M0.0845179 31.9915C2.20897 8.78518 44.5334 -17.8967 49.8372 16.2944C56.6034 59.9109 92.2055 89.0362 108.059 50.0866C122.039 15.7404 151.588 33.289 157.11 60.4609C167.346 110.831 135.185 167.197 80.5326 135.034C60.1114 123.016 46.1402 155.8 28.1263 149.083C-4.02837 137.092 31.0578 115.788 18.5878 72.0798C16.786 65.7659 -1.38561 48.0527 0.0845179 31.9915Z" fill="url(#paint1_linear_32:470)"/>
<path opacity="0.1" d="M148.963 69.6389L127.732 72.724V15.1389C127.732 13.2517 126.203 11.7217 124.317 11.7217H95.7377C93.8514 11.7217 92.3223 13.2517 92.3223 15.1389V72.7243L71.0917 69.6393C69.516 69.4103 68.1875 70.2507 67.5621 71.4641C62.4185 66.058 55.1563 62.6884 47.1076 62.6884C31.5132 62.6884 18.8711 75.3367 18.8711 90.9393C18.8711 106.542 31.5125 119.19 47.1066 119.19H18.722C16.8358 119.19 15.3066 120.72 15.3066 122.607V129.819C15.3066 131.707 16.8358 133.237 18.722 133.237C16.8358 133.237 15.3066 134.766 15.3066 136.654V143.866C15.3066 145.753 16.8358 147.283 18.722 147.283H66.1978H107.457C109.344 147.283 110.873 145.753 110.873 143.866V140.963C111.691 140.757 112.445 140.247 112.942 139.431L152.369 74.8008C153.875 72.3316 151.824 69.2232 148.963 69.6389ZM86.1955 105.144H71.5184C73.9497 100.971 75.3437 96.1179 75.3437 90.939C75.3437 89.5595 75.2428 88.2035 75.0518 86.8768L86.1955 105.144Z" fill="#639A73"/>
<path d="M127.232 65.2665V65.8444L127.804 65.7613L149.034 62.6762L148.962 62.1814L149.034 62.6762C151.476 62.3212 153.228 64.9741 151.942 67.0829L112.515 131.714C111.379 133.577 108.675 133.577 107.538 131.714L68.112 67.0829C66.8257 64.9742 68.5771 62.3211 71.0196 62.6759L92.2502 65.761L92.8221 65.8441V65.2662V7.6811C92.8221 6.06975 94.1276 4.76392 95.7375 4.76392H124.316C125.926 4.76392 127.232 6.06975 127.232 7.6811V65.2665Z" fill="#2FC5E3" stroke="#2FC5E3"/>
<path d="M117.602 4.26392V77.3711L136.456 74.6347L110.027 117.908L83.5977 74.6347L102.452 77.3711V4.26392H117.602Z" fill="white"/>
<path d="M59.9813 111.733H107.457C109.343 111.733 110.873 113.263 110.873 115.15V122.362C110.873 124.25 109.343 125.78 107.457 125.78H59.9813C58.0951 125.78 56.5659 124.25 56.5659 122.362V115.15C56.5659 113.263 58.0951 111.733 59.9813 111.733Z" fill="white"/>
<path d="M103.73 125.78H98.6142V111.733H103.73V125.78Z" fill="#8FD1DE"/>
<path d="M92.0952 125.78H86.979V111.733H92.0952V125.78Z" fill="#8FD1DE"/>
<path d="M80.4595 125.78H75.3432V111.733H80.4595V125.78Z" fill="#8FD1DE"/>
<path d="M68.8247 125.78H63.7084V111.733H68.8247V125.78Z" fill="#6583FE"/>
<path d="M59.9813 125.779H107.457C109.343 125.779 110.873 127.309 110.873 129.197V136.409C110.873 138.296 109.343 139.826 107.457 139.826H59.9813C58.0951 139.826 56.5659 138.296 56.5659 136.409V129.197C56.5659 127.309 58.0951 125.779 59.9813 125.779Z" fill="#8FD1DE"/>
<path d="M103.73 139.826H98.6142V125.779H103.73V139.826Z" fill="white"/>
<path d="M92.0952 139.826H86.979V125.779H92.0952V139.826Z" fill="white"/>
<path d="M80.4595 139.826H75.3432V125.779H80.4595V139.826Z" fill="white"/>
<path d="M68.8247 139.826H63.7084V125.779H68.8247V139.826Z" fill="white"/>
<path d="M66.1978 139.826H18.722C16.8358 139.826 15.3066 138.296 15.3066 136.409V129.197C15.3066 127.309 16.8358 125.779 18.722 125.779H66.1978C68.0841 125.779 69.6132 127.309 69.6132 129.197V136.409C69.6132 138.296 68.0841 139.826 66.1978 139.826Z" fill="#8FD1DE"/>
<path d="M22.4487 125.779H27.565V139.826H22.4487V125.779Z" fill="white"/>
<path d="M34.084 125.779H39.2002V139.826H34.084V125.779Z" fill="white"/>
<path d="M45.7188 125.779H50.835V139.826H45.7188V125.779Z" fill="white"/>
<path d="M57.354 125.779H62.4703V139.826H57.354V125.779Z" fill="white"/>
<path d="M66.1978 125.78H18.722C16.8358 125.78 15.3066 124.25 15.3066 122.362V115.15C15.3066 113.263 16.8358 111.733 18.722 111.733H66.1978C68.0841 111.733 69.6132 113.263 69.6132 115.15V122.362C69.6132 124.25 68.0841 125.78 66.1978 125.78Z" fill="white"/>
<path d="M22.4487 111.733H27.565V125.78H22.4487V111.733Z" fill="#8FD1DE"/>
<path d="M34.084 111.733H39.2002V125.78H34.084V111.733Z" fill="#8FD1DE"/>
<path d="M45.7188 111.733H50.835V125.78H45.7188V111.733Z" fill="#8FD1DE"/>
<path d="M57.354 111.733H62.4703V125.78H57.354V111.733Z" fill="#8FD1DE"/>
<path d="M100.315 111.733H52.8387C50.9525 111.733 49.4233 110.203 49.4233 108.316V101.104C49.4233 99.217 50.9525 97.687 52.8387 97.687H100.315C102.201 97.687 103.73 99.217 103.73 101.104V108.316C103.73 110.203 102.201 111.733 100.315 111.733Z" fill="#8FD1DE"/>
<path d="M56.5654 97.687H61.6817V111.733H56.5654V97.687Z" fill="white"/>
<path d="M68.2007 97.687H73.3169V111.733H68.2007V97.687Z" fill="white"/>
<path d="M79.8359 97.687H84.9522V111.733H79.8359V97.687Z" fill="white"/>
<path d="M91.4712 97.687H96.5875V111.733H91.4712V97.687Z" fill="white"/>
<path d="M47.1071 111.733C62.7017 111.733 75.3436 99.0848 75.3436 83.482C75.3436 67.8793 62.7017 55.2308 47.1071 55.2308C31.5125 55.2308 18.8706 67.8793 18.8706 83.482C18.8706 99.0848 31.5125 111.733 47.1071 111.733Z" fill="#8FD1DE"/>
<path d="M153.6 62.8254C152.527 61.201 150.665 60.3665 148.74 60.6458L129.284 63.4702V7.68193C129.284 4.94085 127.055 2.71057 124.315 2.71057H95.7384C92.9988 2.71057 90.7697 4.94085 90.7697 7.68193V38.6286C90.7697 39.4865 91.465 40.1822 92.3224 40.1822C93.1798 40.1822 93.8752 39.4865 93.8752 38.6286V7.68193C93.8752 6.65379 94.7108 5.81767 95.7384 5.81767H124.315C125.343 5.81767 126.178 6.65379 126.178 7.68193V65.2657C126.178 65.7166 126.374 66.1454 126.715 66.4405C127.056 66.7357 127.509 66.8684 127.954 66.8031L149.187 63.7209C149.919 63.6152 150.6 63.9197 151.008 64.5381C151.416 65.1561 151.43 65.9027 151.044 66.535L112.425 129.841V129.197C112.425 127.873 111.902 126.671 111.056 125.78C111.902 124.888 112.425 123.686 112.425 122.362V115.15C112.425 112.41 110.196 110.18 107.457 110.18H104.917C105.151 109.604 105.282 108.975 105.282 108.316V101.104C105.282 98.3635 103.054 96.1335 100.314 96.1335H87.0648L76.541 78.8823C75.6631 73.2367 73.1964 68.1103 69.6137 63.9772C69.9438 63.7666 70.3627 63.6469 70.8673 63.7209L92.0994 66.8031C92.1737 66.814 92.2482 66.8193 92.3224 66.8193C92.6932 66.8193 93.0544 66.6863 93.3385 66.4405C93.6792 66.1454 93.8752 65.7166 93.8752 65.2657V46.9339C93.8752 46.076 93.1798 45.3803 92.3224 45.3803C91.465 45.3803 90.7697 46.076 90.7697 46.9339V63.4705L71.3145 60.6461C69.8776 60.4358 68.4926 60.8434 67.4386 61.7202C62.1112 56.7346 54.9599 53.6775 47.1071 53.6775C30.6813 53.6775 17.3179 67.0477 17.3179 83.482C17.3179 95.1638 24.071 105.296 33.8753 110.18H18.7215C15.9822 110.18 13.7534 112.41 13.7534 115.15V122.362C13.7534 123.686 14.2767 124.888 15.1229 125.78C14.2767 126.671 13.7534 127.873 13.7534 129.197V136.409C13.7534 139.149 15.9822 141.379 18.7215 141.379H79.8664C80.7238 141.379 81.4191 140.684 81.4191 139.826C81.4191 138.968 80.7238 138.272 79.8664 138.272H70.8C71.0338 137.696 71.1655 137.068 71.1655 136.409V129.197C71.1655 128.537 71.0338 127.909 70.8 127.333H107.456H107.457H107.459C108.485 127.334 109.32 128.17 109.32 129.197V133.247C109.292 133.406 109.296 133.571 109.32 133.737V136.409C109.32 137.436 108.485 138.272 107.457 138.272H88.1651C87.3077 138.272 86.6124 138.968 86.6124 139.826C86.6124 140.684 87.3077 141.379 88.1651 141.379H107.457C110.197 141.379 112.425 139.149 112.425 136.409V134.547C113.173 134.135 113.809 133.537 114.268 132.785L153.695 68.1535C154.709 66.4915 154.672 64.4501 153.6 62.8254ZM109.32 115.15V122.362C109.32 123.39 108.485 124.225 107.459 124.226C107.458 124.226 107.458 124.226 107.457 124.226H70.8003C71.0341 123.65 71.1658 123.022 71.1658 122.362V115.15C71.1658 114.491 71.0341 113.863 70.8003 113.287H107.458C108.484 113.287 109.32 114.123 109.32 115.15ZM102.177 101.104V108.316C102.177 109.344 101.342 110.18 100.315 110.18H60.3389C65.2902 107.713 69.4624 103.908 72.3803 99.2406H100.315C101.342 99.2406 102.177 100.077 102.177 101.104ZM74.075 96.1335C75.6346 92.8188 76.6007 89.1727 76.837 85.3317L83.4265 96.1335H74.075ZM20.4237 83.482C20.4237 68.7609 32.394 56.7846 47.1074 56.7846C61.8208 56.7846 73.7908 68.7609 73.7908 83.482C73.7908 98.2031 61.8208 110.18 47.1074 110.18C32.394 110.18 20.4237 98.2031 20.4237 83.482ZM16.8589 115.15C16.8589 114.123 17.6946 113.287 18.7215 113.287H66.1973C67.2243 113.287 68.06 114.123 68.06 115.15V122.362C68.06 123.39 67.2243 124.226 66.1973 124.226H18.7215C17.6946 124.226 16.8589 123.39 16.8589 122.362V115.15ZM68.0603 129.197V136.409C68.0603 137.436 67.2246 138.272 66.1977 138.272H18.7215C17.6946 138.272 16.8589 137.436 16.8589 136.409V129.197C16.8589 128.169 17.6946 127.333 18.7215 127.333H66.1973C67.2246 127.333 68.0603 128.169 68.0603 129.197Z" fill="#21ABB1"/>
<path d="M47.1073 105.724C59.3845 105.724 69.3372 95.7657 69.3372 83.482C69.3372 71.1984 59.3845 61.2405 47.1073 61.2405C34.8301 61.2405 24.8774 71.1984 24.8774 83.482C24.8774 95.7657 34.8301 105.724 47.1073 105.724Z" fill="white"/>
<path d="M47.1069 68.484C48.3862 68.484 49.4233 67.4464 49.4233 66.1665C49.4233 64.8865 48.3862 63.8489 47.1069 63.8489C45.8276 63.8489 44.7905 64.8865 44.7905 66.1665C44.7905 67.4464 45.8276 68.484 47.1069 68.484Z" fill="#8FD1DE"/>
<path d="M47.1069 103.115C48.3862 103.115 49.4233 102.078 49.4233 100.798C49.4233 99.5179 48.3862 98.4803 47.1069 98.4803C45.8276 98.4803 44.7905 99.5179 44.7905 100.798C44.7905 102.078 45.8276 103.115 47.1069 103.115Z" fill="#8FD1DE"/>
<path d="M38.4536 70.8038C39.7329 70.8038 40.7699 69.7662 40.7699 68.4862C40.7699 67.2063 39.7329 66.1686 38.4536 66.1686C37.1743 66.1686 36.1372 67.2063 36.1372 68.4862C36.1372 69.7662 37.1743 70.8038 38.4536 70.8038Z" fill="#8FD1DE"/>
<path d="M55.7602 100.796C57.0395 100.796 58.0766 99.7581 58.0766 98.4781C58.0766 97.1981 57.0395 96.1605 55.7602 96.1605C54.4809 96.1605 53.4438 97.1981 53.4438 98.4781C53.4438 99.7581 54.4809 100.796 55.7602 100.796Z" fill="#8FD1DE"/>
<path d="M32.1191 77.142C33.3984 77.142 34.4355 76.1044 34.4355 74.8244C34.4355 73.5445 33.3984 72.5068 32.1191 72.5068C30.8398 72.5068 29.8027 73.5445 29.8027 74.8244C29.8027 76.1044 30.8398 77.142 32.1191 77.142Z" fill="#8FD1DE"/>
<path d="M62.0952 94.4575C63.3745 94.4575 64.4115 93.4199 64.4115 92.1399C64.4115 90.8599 63.3745 89.8223 62.0952 89.8223C60.8159 89.8223 59.7788 90.8599 59.7788 92.1399C59.7788 93.4199 60.8159 94.4575 62.0952 94.4575Z" fill="#8FD1DE"/>
<path d="M29.8003 85.7996C31.0796 85.7996 32.1166 84.762 32.1166 83.482C32.1166 82.2021 31.0796 81.1644 29.8003 81.1644C28.521 81.1644 27.4839 82.2021 27.4839 83.482C27.4839 84.762 28.521 85.7996 29.8003 85.7996Z" fill="#8FD1DE"/>
<path d="M64.414 85.7996C65.6933 85.7996 66.7304 84.762 66.7304 83.482C66.7304 82.2021 65.6933 81.1644 64.414 81.1644C63.1347 81.1644 62.0977 82.2021 62.0977 83.482C62.0977 84.762 63.1347 85.7996 64.414 85.7996Z" fill="#8FD1DE"/>
<path d="M32.1191 94.4575C33.3984 94.4575 34.4355 93.4199 34.4355 92.1399C34.4355 90.8599 33.3984 89.8223 32.1191 89.8223C30.8398 89.8223 29.8027 90.8599 29.8027 92.1399C29.8027 93.4199 30.8398 94.4575 32.1191 94.4575Z" fill="#8FD1DE"/>
<path d="M62.0952 77.142C63.3745 77.142 64.4115 76.1044 64.4115 74.8244C64.4115 73.5445 63.3745 72.5068 62.0952 72.5068C60.8159 72.5068 59.7788 73.5445 59.7788 74.8244C59.7788 76.1044 60.8159 77.142 62.0952 77.142Z" fill="#8FD1DE"/>
<path d="M38.4536 100.796C39.7329 100.796 40.7699 99.7581 40.7699 98.4781C40.7699 97.1981 39.7329 96.1605 38.4536 96.1605C37.1743 96.1605 36.1372 97.1981 36.1372 98.4781C36.1372 99.7581 37.1743 100.796 38.4536 100.796Z" fill="#8FD1DE"/>
<path d="M55.7602 70.8038C57.0395 70.8038 58.0766 69.7662 58.0766 68.4862C58.0766 67.2063 57.0395 66.1686 55.7602 66.1686C54.4809 66.1686 53.4438 67.2063 53.4438 68.4862C53.4438 69.7662 54.4809 70.8038 55.7602 70.8038Z" fill="#8FD1DE"/>
<path d="M79.3715 39.3233C78.974 39.3233 78.5768 39.1717 78.2734 38.8684L76.5766 37.1707L74.8798 38.8684C74.2733 39.4749 73.2904 39.4749 72.6839 38.8684C72.0774 38.2616 72.0774 37.2779 72.6839 36.6714L75.4788 33.875C76.0853 33.2685 77.0682 33.2685 77.6747 33.875L80.4696 36.6714C81.0761 37.2782 81.0761 38.2619 80.4696 38.8684C80.1662 39.1717 79.769 39.3233 79.3715 39.3233Z" fill="#8FD1DE"/>
<path d="M26.4672 53.5119C26.0697 53.5119 25.6725 53.3602 25.3691 53.057L23.6723 51.3593L21.9755 53.057C21.369 53.6635 20.3861 53.6635 19.7796 53.057C19.1731 52.4502 19.1731 51.4665 19.7796 50.86L22.5745 48.0636C23.181 47.4571 24.1639 47.4571 24.7704 48.0636L27.5653 50.86C28.1718 51.4668 28.1718 52.4505 27.5653 53.057C27.2619 53.3602 26.8644 53.5119 26.4672 53.5119Z" fill="#8FD1DE"/>
<path d="M82.0452 50.7155C81.6477 50.7155 81.2505 50.5638 80.9471 50.2606C80.3406 49.6538 80.3406 48.6701 80.9471 48.0636L84.0525 44.9565C84.659 44.35 85.6419 44.35 86.2484 44.9565C86.8549 45.5633 86.8549 46.547 86.2484 47.1535L83.1429 50.2606C82.8398 50.5638 82.4427 50.7155 82.0452 50.7155Z" fill="#8FD1DE"/>
<path d="M10.7561 108.251C10.3586 108.251 9.9614 108.099 9.658 107.796C9.0515 107.189 9.0515 106.206 9.658 105.599L12.7635 102.492C13.37 101.886 14.3528 101.886 14.9593 102.492C15.5658 103.099 15.5658 104.083 14.9593 104.689L11.8539 107.796C11.5508 108.099 11.1536 108.251 10.7561 108.251Z" fill="#8FD1DE"/>
<path d="M120.377 142.933C119.979 142.933 119.582 142.781 119.279 142.478C118.672 141.871 118.672 140.887 119.279 140.281L122.384 137.174C122.991 136.567 123.973 136.567 124.58 137.174C125.186 137.781 125.186 138.764 124.58 139.371L121.474 142.478C121.172 142.781 120.774 142.933 120.377 142.933Z" fill="#8FD1DE"/>
<path d="M49.7309 87.5423C49.0972 87.8669 48.4179 88.0314 47.7125 88.0314C46.326 88.0314 45.0864 87.3931 44.2698 86.3954H47.1236C47.6961 86.3954 48.1604 85.9309 48.1604 85.3582C48.1604 84.7855 47.6961 84.321 47.1236 84.321H43.3305C43.2899 84.0798 43.2638 83.8335 43.2638 83.5809C43.2638 83.3282 43.2899 83.082 43.3305 82.8407H47.1236C47.6961 82.8407 48.1604 82.3763 48.1604 81.8036C48.1604 81.2308 47.6961 80.7664 47.1236 80.7664H44.2698C45.0864 79.7686 46.3262 79.1303 47.7125 79.1303C48.4179 79.1303 49.097 79.2948 49.7309 79.6197C50.2407 79.8806 50.8653 79.679 51.1261 79.1691C51.387 78.6592 51.1854 78.0342 50.6758 77.7733C49.7466 77.2974 48.7495 77.056 47.7123 77.056C45.1229 77.056 42.8812 78.5736 41.8289 80.7664H40.7868C40.2143 80.7664 39.75 81.2308 39.75 81.8036C39.75 82.3763 40.2143 82.8407 40.7868 82.8407H41.2332C41.2056 83.0839 41.1901 83.3305 41.1901 83.5809C41.1901 83.8312 41.2056 84.0779 41.2332 84.321H40.7868C40.2143 84.321 39.75 84.7855 39.75 85.3582C39.75 85.9309 40.2143 86.3954 40.7868 86.3954H41.8289C42.8812 88.5882 45.1229 90.1058 47.7123 90.1058C48.7497 90.1058 49.7466 89.8645 50.6758 89.3887C51.1854 89.1277 51.387 88.5027 51.1261 87.9928C50.8653 87.483 50.2405 87.2813 49.7309 87.5423Z" fill="#8FD1DE"/>
<defs>
<linearGradient id="paint0_linear_32:470" x1="58.2831" y1="107.638" x2="59.0278" y2="106.894" gradientUnits="userSpaceOnUse">
<stop stop-color="#FFF3EE" stop-opacity="0"/>
<stop offset="0.2938" stop-color="#FFEADE" stop-opacity="0.373"/>
<stop offset="0.7874" stop-color="#FFD6BB"/>
</linearGradient>
<linearGradient id="paint1_linear_32:470" x1="68.8869" y1="166.5" x2="70.7741" y2="-4.99404" gradientUnits="userSpaceOnUse">
<stop offset="0.263809" stop-color="#BDE1E8" stop-opacity="0.22"/>
<stop offset="1" stop-color="#ECFCFF"/>
</linearGradient>
</defs>
</svg>
