<svg width="149" height="150" viewBox="0 0 149 150" fill="none" xmlns="http://www.w3.org/2000/svg">
<path d="M133.348 3.87767C130.06 -0.10231 118.085 -1.49186 112.189 1.97396C80.0689 20.8517 86.7052 90.4092 52.0914 83.9238C40.8695 81.8211 42.8991 67.6435 25.0002 64.4287C16.2237 62.8526 2.00714 72.4956 0.267736 90.0029C-1.46548 107.449 4.89839 141.346 28.7105 148.02C61.8537 157.31 67.2392 131.528 96.8059 119.946C109.753 114.875 115.98 135.522 135.565 130.358C141.371 128.828 145.724 115.025 143.343 107.748C138.858 94.0379 117.396 93.2903 131.604 74.9422C143.842 59.1392 153.112 38.1037 147.14 30.5826C144.381 27.1086 136.198 31.1906 131.354 21.9723C129.234 17.9393 139.989 11.9161 133.348 3.87767Z" fill="url(#paint0_linear_32:545)"/>
<path opacity="0.1" d="M141.102 138.089C140.289 138.089 139.63 138.745 139.63 139.554V140.875H132.174V34.9763L108.851 62.2212L95.5646 56.3478L85.2492 70.2328C84.0962 67.9165 82.5252 65.7539 80.5296 63.8604C74.0656 57.7277 64.7837 56.1228 56.8365 59.0203C56.9169 58.3373 56.9628 57.6439 56.9628 56.9396C56.9628 47.1459 48.9818 39.2068 39.1364 39.2068C29.2911 39.2068 21.31 47.1459 21.31 56.9396C21.31 66.7332 29.2914 74.6724 39.1364 74.6724C40.366 74.6724 41.5665 74.5485 42.726 74.3126C41.0443 80.4451 41.9864 87.1406 45.5586 92.6399L44.3641 98.9027C44.2448 99.5285 44.5399 100.106 45.0223 100.412L42.3192 102.015L26.4369 125.087L12.6071 130.448V24.4792H13.9348C14.7482 24.4792 15.4074 23.8233 15.4074 23.0144C15.4074 22.2055 14.7482 21.5496 13.9348 21.5496H8.33341C7.51996 21.5496 6.86084 22.2055 6.86084 23.0144C6.86084 23.8233 7.51996 24.4792 8.33341 24.4792H9.66138V142.34C9.64577 143.127 10.3429 143.82 11.134 143.805H139.63V145.125C139.63 145.934 140.289 146.59 141.102 146.59C141.916 146.59 142.575 145.934 142.575 145.125V139.554C142.575 138.745 141.916 138.089 141.102 138.089Z" fill="#639A73"/>
<path d="M109.231 55.5151L131.673 29.298V134.808H11.6338V124.33L26.6169 118.523L26.7606 118.467L26.848 118.34L42.668 95.3579L59.7113 85.2515L59.8312 85.1804L59.897 85.0576L67.4111 71.0366L79.2687 71.7122L79.5378 71.7276L79.6985 71.5112L95.7273 49.9354L108.649 55.6473L108.989 55.7977L109.231 55.5151Z" fill="#2FC5E3" stroke="#2FC5E3"/>
<path d="M123.339 51.8232V135.308L38.1774 135.311H19.3638V130.23L32.1869 125.262L48.5119 101.543L66.0944 91.1162L72.2586 79.6143L83.5621 80.2588L98.4557 60.2139L111.297 65.8887L123.339 51.8232Z" fill="white"/>
<path d="M66.3493 110.296L66.4692 110.225L66.535 110.102L72.5485 98.8816L83.5335 99.508L83.8026 99.5233L83.9633 99.307L98.6188 79.5826L111.094 85.096L111.434 85.2463L111.676 84.9639L122.839 71.926V134.808L39.1283 134.811L48.8614 120.667L66.3493 110.296Z" fill="#2FC5E3" stroke="#2FC5E3"/>
<path d="M42.0812 99.1113C44.7318 99.1113 46.8806 96.9738 46.8806 94.3371C46.8806 91.7004 44.7318 89.5629 42.0812 89.5629C39.4305 89.5629 37.2817 91.7004 37.2817 94.3371C37.2817 96.9738 39.4305 99.1113 42.0812 99.1113Z" fill="white"/>
<path d="M80.9258 89.3645C89.9809 80.3569 89.8487 65.6712 80.5296 56.8292C71.718 48.4687 57.6659 48.5121 48.9034 56.9232C40.8782 64.6265 39.7661 76.6916 45.5583 85.6089L44.3638 91.8717C44.1703 92.8866 45.065 93.7763 46.0849 93.5838L52.3808 92.3956C61.2336 98.0856 73.1715 97.0778 80.9258 89.3645Z" fill="white"/>
<path d="M75.9112 74.2766L66.0798 60.612C65.4357 59.717 64.098 59.717 63.4542 60.612L53.6227 74.2766C52.7892 75.435 53.772 77.0194 55.1868 76.7976L58.9828 76.2026V85.0638C58.9828 85.9506 59.7056 86.6698 60.5974 86.6698H68.9368C69.8283 86.6698 70.5514 85.9509 70.5514 85.0638V76.2026L74.3474 76.7976C75.7616 77.0194 76.7447 75.4353 75.9112 74.2766Z" fill="#8FD1DE"/>
<path d="M39.136 67.6412C48.9812 67.6412 56.9624 59.702 56.9624 49.9084C56.9624 40.1149 48.9812 32.1756 39.136 32.1756C29.2907 32.1756 21.3096 40.1149 21.3096 49.9084C21.3096 59.702 29.2907 67.6412 39.136 67.6412Z" fill="#8FD1DE"/>
<path d="M39.1358 63.3094C46.576 63.3094 52.6075 57.3096 52.6075 49.9084C52.6075 42.5073 46.576 36.5074 39.1358 36.5074C31.6955 36.5074 25.6641 42.5073 25.6641 49.9084C25.6641 57.3096 31.6955 63.3094 39.1358 63.3094Z" fill="white"/>
<path d="M96.0367 54.6826C98.6874 54.6826 100.836 52.5451 100.836 49.9084C100.836 47.2716 98.6874 45.1342 96.0367 45.1342C93.3861 45.1342 91.2373 47.2716 91.2373 49.9084C91.2373 52.5451 93.3861 54.6826 96.0367 54.6826Z" fill="white"/>
<path d="M141.102 131.058C140.289 131.058 139.63 131.714 139.63 132.523V133.844H40.9713L49.544 121.386L66.8485 111.124C67.0788 110.988 67.2676 110.791 67.3939 110.555L73.1149 99.8803L83.478 100.471C83.9725 100.497 84.4511 100.277 84.7465 99.8794L98.9382 80.7799L110.699 85.9775C111.296 86.2409 111.995 86.0824 112.418 85.5887L124.461 71.5233C124.988 70.9072 124.914 69.9829 124.295 69.4581C123.676 68.9337 122.747 69.0076 122.219 69.6234L110.89 82.8556L99.0543 77.6252C98.4234 77.3466 97.6824 77.5409 97.2722 78.0934L82.8516 97.5011L72.3433 96.902C71.7749 96.8701 71.2297 97.1712 70.9596 97.6754L64.9886 108.817L47.7583 119.035C47.5752 119.144 47.4179 119.291 47.2974 119.466L37.4029 133.844H12.6065V124.989L26.9697 119.423C27.2457 119.316 27.4828 119.129 27.6503 118.885L40.4123 100.345C40.945 100.492 41.5037 100.576 42.0828 100.576C45.4337 100.576 48.1713 97.9447 48.3371 94.6499L52.0886 93.943C55.9494 96.2894 60.3533 97.456 64.756 97.4557C69.7156 97.4554 74.6723 95.9739 78.84 93.0284C79.5032 92.5596 79.6587 91.6453 79.1878 90.9858C78.7163 90.3263 77.7968 90.1719 77.1344 90.6401C70.0779 95.627 60.4519 95.8388 53.1813 91.1663C52.8638 90.9621 52.4788 90.8876 52.108 90.9574L46.5352 92.0085C46.5282 92.0097 46.5214 92.0091 46.5143 92.0103C46.5078 92.0115 46.5022 92.0144 46.4958 92.0159L45.8122 92.1448L46.1126 90.5683C46.1132 90.5645 46.1141 90.5604 46.115 90.5566L47.0056 85.8814C47.0757 85.512 47.0006 85.1296 46.7953 84.8135C43.6649 79.9954 42.6447 74.0982 43.9373 68.5048C51.2572 66.6339 56.9072 60.5871 58.1677 53.0806C65.5945 50.7111 73.8859 52.5533 79.5129 57.8906C87.2074 65.1896 88.3864 76.773 82.3164 85.4331C81.8514 86.0967 82.0151 87.0099 82.6822 87.4725C82.9387 87.6503 83.2324 87.7359 83.523 87.7359C83.9881 87.7359 84.4461 87.517 84.732 87.1086C88.0135 82.4273 89.522 76.7038 88.9795 70.993C88.7274 68.3408 88.0321 65.7711 86.95 63.3758L92.9325 55.3221C93.8493 55.8445 94.9075 56.1474 96.0373 56.1474C98.1878 56.1474 100.088 55.0643 101.218 53.4184L108.254 56.528C108.447 56.6132 108.65 56.6542 108.852 56.6542C109.274 56.6542 109.687 56.4735 109.973 56.1389L133.296 28.8958C133.823 28.2799 133.749 27.3553 133.13 26.8309C132.511 26.3065 131.581 26.3803 131.054 26.9964L108.445 53.4061L102.257 50.6715C102.288 50.4207 102.309 50.167 102.309 49.9083C102.309 46.468 99.4952 43.6693 96.037 43.6693C92.5788 43.6693 89.765 46.468 89.765 49.9083C89.765 51.1567 90.1393 52.318 90.7764 53.2942L85.4153 60.5112C84.338 58.7885 83.0436 57.1918 81.5445 55.7698C75.4351 49.9748 66.5696 47.8004 58.4339 49.9529C58.4339 49.9379 58.4351 49.9233 58.4351 49.9083C58.4351 45.9612 57.2358 42.1661 54.9669 38.9332C54.5013 38.2696 53.5836 38.1076 52.9165 38.5707C52.2497 39.0339 52.0865 39.9471 52.5522 40.6104C54.4742 43.3491 55.4902 46.5641 55.4902 49.9083C55.4902 58.8788 48.1539 66.1763 39.1364 66.1763C30.1187 66.1763 22.7823 58.8785 22.7823 49.9083C22.7823 40.9382 30.1187 33.6404 39.1364 33.6404C41.9652 33.6404 44.7572 34.3746 47.2103 35.7635C47.9177 36.1634 48.8162 35.9179 49.2186 35.2151C49.6206 34.512 49.3738 33.6175 48.6672 33.2173C45.771 31.5773 42.4753 30.7104 39.1364 30.7104C28.4947 30.7104 19.8372 39.3225 19.8372 49.9081C19.8372 60.4936 28.4947 69.1057 39.1364 69.1057C39.706 69.1057 40.2685 69.0761 40.8255 69.0278C39.785 74.8382 40.9012 80.8552 44.0036 85.9004L43.5515 88.2747C43.0732 88.1601 42.5814 88.0983 42.0828 88.0983C38.6237 88.0983 35.8096 90.8964 35.8096 94.3356C35.8096 96.1435 36.5912 97.7692 37.83 98.9097L25.4768 116.856L12.6068 121.844V17.448H13.9345C14.7479 17.448 15.4071 16.792 15.4071 15.9832C15.4071 15.1743 14.7479 14.5183 13.9345 14.5183H8.33341C7.51996 14.5183 6.86084 15.1743 6.86084 15.9832C6.86084 16.792 7.51996 17.448 8.33341 17.448H9.66138V135.308C9.66138 135.697 9.8163 136.07 10.0928 136.344C10.3691 136.619 10.7434 136.773 11.134 136.773H139.63V138.094C139.63 138.903 140.289 139.559 141.102 139.559C141.916 139.559 142.575 138.903 142.575 138.094V132.523C142.575 131.714 141.916 131.058 141.102 131.058ZM96.0367 46.599C97.8712 46.599 99.3635 48.0834 99.3635 49.9083C99.3635 51.7332 97.8712 53.2177 96.0367 53.2177C94.2022 53.2177 92.7098 51.7332 92.7098 49.9083C92.7098 48.0834 94.2022 46.599 96.0367 46.599ZM42.0825 91.0283C42.3961 91.0283 42.7054 91.0722 43.0022 91.1575L42.9183 91.5975C42.7354 92.5505 43.0382 93.5293 43.7282 94.2158C44.1703 94.6555 44.7331 94.935 45.3315 95.0331C45.0091 96.5247 43.6752 97.6464 42.0822 97.6464C40.2473 97.6464 38.7541 96.1614 38.7541 94.3359C38.7544 92.5119 40.2473 91.0283 42.0825 91.0283Z" fill="#21ABB1"/>
<path d="M78.7689 40.609C78.3922 40.609 78.0149 40.466 77.7278 40.1801L76.1182 38.5793L74.5087 40.1801C73.9341 40.7519 73.0011 40.7519 72.4265 40.1801C71.8513 39.6079 71.8513 38.6803 72.4265 38.1085L75.0771 35.4718C75.6517 34.8999 76.5848 34.8999 77.1594 35.4718L79.81 38.1085C80.3852 38.6806 80.3852 39.6082 79.81 40.1801C79.5228 40.466 79.1456 40.609 78.7689 40.609Z" fill="#8FD1DE"/>
<path d="M86.8441 29.6903C86.4674 29.6903 86.0901 29.5473 85.803 29.2614L84.1934 27.6606L82.5839 29.2614C82.0093 29.8332 81.0763 29.8332 80.5017 29.2614C79.9265 28.6892 79.9265 27.7616 80.5017 27.1898L83.1523 24.5531C83.7269 23.9812 84.66 23.9812 85.2346 24.5531L87.8852 27.1898C88.4604 27.7619 88.4604 28.6895 87.8852 29.2614C87.598 29.5473 87.2208 29.6903 86.8441 29.6903Z" fill="#8FD1DE"/>
<path d="M114.035 36.2771C113.658 36.2771 113.281 36.1341 112.993 35.8482L111.384 34.2474L109.774 35.8482C109.2 36.4201 108.267 36.4201 107.692 35.8482C107.117 35.276 107.117 34.3485 107.692 33.7766L110.343 31.1399C110.917 30.568 111.85 30.568 112.425 31.1399L115.076 33.7766C115.651 34.3488 115.651 35.2763 115.076 35.8482C114.788 36.1339 114.411 36.2771 114.035 36.2771Z" fill="#8FD1DE"/>
<path d="M25.6644 27.0536C25.2877 27.0536 24.9104 26.9106 24.6233 26.6247C24.0481 26.0525 24.0481 25.125 24.6233 24.5531L27.5684 21.6234C28.143 21.0516 29.0761 21.0516 29.6507 21.6234C30.2258 22.1956 30.2258 23.1231 29.6507 23.695L26.7055 26.6247C26.4181 26.9106 26.0411 27.0536 25.6644 27.0536Z" fill="#8FD1DE"/>
<path d="M25.6644 105.982C25.2877 105.982 24.9104 105.839 24.6233 105.553C24.0481 104.981 24.0481 104.053 24.6233 103.481L27.5684 100.552C28.143 99.9797 29.0761 99.9797 29.6507 100.552C30.2258 101.124 30.2258 102.051 29.6507 102.623L26.7055 105.553C26.4181 105.839 26.0411 105.982 25.6644 105.982Z" fill="#8FD1DE"/>
<path d="M41.389 53.1842C40.8368 53.4611 40.2448 53.6015 39.6301 53.6015C38.4217 53.6015 37.3415 53.0569 36.6299 52.2057H39.1169C39.6158 52.2057 40.0204 51.8095 40.0204 51.3209C40.0204 50.8323 39.6158 50.4361 39.1169 50.4361H35.8113C35.7759 50.2303 35.7531 50.0202 35.7531 49.8047C35.7531 49.5891 35.7759 49.3791 35.8113 49.1733H39.1169C39.6158 49.1733 40.0204 48.7771 40.0204 48.2885C40.0204 47.7999 39.6158 47.4036 39.1169 47.4036H36.6299C37.3415 46.5524 38.4219 46.0079 39.6301 46.0079C40.2448 46.0079 40.8366 46.1483 41.389 46.4254C41.8334 46.648 42.3777 46.476 42.605 46.041C42.8323 45.606 42.6567 45.0728 42.2125 44.8502C41.4028 44.4443 40.5338 44.2383 39.6299 44.2383C37.3733 44.2383 35.4197 45.533 34.5026 47.4036H33.5944C33.0955 47.4036 32.6909 47.7999 32.6909 48.2885C32.6909 48.7771 33.0955 49.1733 33.5944 49.1733H33.9835C33.9595 49.3807 33.9459 49.5911 33.9459 49.8047C33.9459 50.0183 33.9595 50.2287 33.9835 50.4361H33.5944C33.0955 50.4361 32.6909 50.8323 32.6909 51.3209C32.6909 51.8095 33.0955 52.2057 33.5944 52.2057H34.5026C35.4197 54.0764 37.3733 55.3711 39.6299 55.3711C40.534 55.3711 41.4028 55.1653 42.2125 54.7593C42.6567 54.5367 42.8323 54.0035 42.605 53.5685C42.3777 53.1336 41.8332 52.9615 41.389 53.1842Z" fill="#8FD1DE"/>
<path d="M39.2876 41.1109C40.044 41.1109 40.6572 40.4993 40.6572 39.7449C40.6572 38.9904 40.044 38.3788 39.2876 38.3788C38.5312 38.3788 37.918 38.9904 37.918 39.7449C37.918 40.4993 38.5312 41.1109 39.2876 41.1109Z" fill="#8FD1DE"/>
<path d="M39.2876 61.5234C40.044 61.5234 40.6572 60.9118 40.6572 60.1574C40.6572 59.4029 40.044 58.7913 39.2876 58.7913C38.5312 58.7913 37.918 59.4029 37.918 60.1574C37.918 60.9118 38.5312 61.5234 39.2876 61.5234Z" fill="#8FD1DE"/>
<path d="M34.1709 42.4783C34.9273 42.4783 35.5405 41.8667 35.5405 41.1122C35.5405 40.3578 34.9273 39.7462 34.1709 39.7462C33.4145 39.7462 32.8013 40.3578 32.8013 41.1122C32.8013 41.8667 33.4145 42.4783 34.1709 42.4783Z" fill="#8FD1DE"/>
<path d="M44.4038 60.1561C45.1602 60.1561 45.7734 59.5445 45.7734 58.79C45.7734 58.0356 45.1602 57.424 44.4038 57.424C43.6474 57.424 43.0342 58.0356 43.0342 58.79C43.0342 59.5445 43.6474 60.1561 44.4038 60.1561Z" fill="#8FD1DE"/>
<path d="M30.4253 46.2141C31.1817 46.2141 31.7949 45.6025 31.7949 44.848C31.7949 44.0936 31.1817 43.482 30.4253 43.482C29.6689 43.482 29.0557 44.0936 29.0557 44.848C29.0557 45.6025 29.6689 46.2141 30.4253 46.2141Z" fill="#8FD1DE"/>
<path d="M48.1499 56.4203C48.9063 56.4203 49.5195 55.8087 49.5195 55.0543C49.5195 54.2998 48.9063 53.6882 48.1499 53.6882C47.3935 53.6882 46.7803 54.2998 46.7803 55.0543C46.7803 55.8087 47.3935 56.4203 48.1499 56.4203Z" fill="#8FD1DE"/>
<path d="M29.0542 51.317C29.8106 51.317 30.4238 50.7054 30.4238 49.951C30.4238 49.1966 29.8106 48.585 29.0542 48.585C28.2978 48.585 27.6846 49.1966 27.6846 49.951C27.6846 50.7054 28.2978 51.317 29.0542 51.317Z" fill="#8FD1DE"/>
<path d="M49.5205 51.317C50.2769 51.317 50.8901 50.7054 50.8901 49.951C50.8901 49.1966 50.2769 48.585 49.5205 48.585C48.7641 48.585 48.1509 49.1966 48.1509 49.951C48.1509 50.7054 48.7641 51.317 49.5205 51.317Z" fill="#8FD1DE"/>
<path d="M30.4253 56.4203C31.1817 56.4203 31.7949 55.8087 31.7949 55.0543C31.7949 54.2998 31.1817 53.6882 30.4253 53.6882C29.6689 53.6882 29.0557 54.2998 29.0557 55.0543C29.0557 55.8087 29.6689 56.4203 30.4253 56.4203Z" fill="#8FD1DE"/>
<path d="M48.1499 46.2141C48.9063 46.2141 49.5195 45.6025 49.5195 44.848C49.5195 44.0936 48.9063 43.482 48.1499 43.482C47.3935 43.482 46.7803 44.0936 46.7803 44.848C46.7803 45.6025 47.3935 46.2141 48.1499 46.2141Z" fill="#8FD1DE"/>
<path d="M34.1709 60.1561C34.9273 60.1561 35.5405 59.5445 35.5405 58.79C35.5405 58.0356 34.9273 57.424 34.1709 57.424C33.4145 57.424 32.8013 58.0356 32.8013 58.79C32.8013 59.5445 33.4145 60.1561 34.1709 60.1561Z" fill="#8FD1DE"/>
<path d="M44.4038 42.4783C45.1602 42.4783 45.7734 41.8667 45.7734 41.1122C45.7734 40.3578 45.1602 39.7462 44.4038 39.7462C43.6474 39.7462 43.0342 40.3578 43.0342 41.1122C43.0342 41.8667 43.6474 42.4783 44.4038 42.4783Z" fill="#8FD1DE"/>
<defs>
<linearGradient id="paint0_linear_32:545" x1="64.5544" y1="166.5" x2="66.5683" y2="-4.99116" gradientUnits="userSpaceOnUse">
<stop offset="0.263809" stop-color="#BDE1E8" stop-opacity="0.22"/>
<stop offset="1" stop-color="#ECFCFF"/>
</linearGradient>
</defs>
</svg>
