<svg width="122" height="122" viewBox="0 0 122 122" fill="none" xmlns="http://www.w3.org/2000/svg">
<path d="M61 122C94.6894 122 122 94.6894 122 61C122 27.3106 94.6894 0 61 0C27.3106 0 0 27.3106 0 61C0 94.6894 27.3106 122 61 122Z" fill="url(#paint0_linear_11:8521)"/>
<path d="M60.5781 120.401C60.1118 120.401 59.6455 120.379 59.1791 120.379L59.49 109.964L60.6891 109.986L60.5781 120.401ZM62.5767 120.379L62.3102 109.964C62.7099 109.964 63.0874 109.942 63.4871 109.92L63.9978 120.334C63.5315 120.357 63.0652 120.357 62.5767 120.379ZM57.1806 120.268C56.6921 120.246 56.2257 120.201 55.7372 120.157L56.6476 109.787C57.0251 109.831 57.4249 109.853 57.8024 109.875L57.1806 120.268ZM65.9964 120.179L65.1526 109.787C65.5301 109.764 65.9298 109.72 66.3073 109.676L67.4398 120.024C66.9512 120.112 66.4849 120.157 65.9964 120.179ZM53.7831 119.957C53.3167 119.89 52.8282 119.846 52.3619 119.779L53.8497 109.476C54.2272 109.542 54.6269 109.587 55.0266 109.631L53.7831 119.957ZM69.3939 119.802L67.9283 109.476C68.3058 109.409 68.7055 109.365 69.083 109.298L70.7929 119.579C70.3488 119.668 69.8824 119.735 69.3939 119.802ZM50.4077 119.446C49.9414 119.357 49.4751 119.269 49.0088 119.18L51.0961 108.965C51.4736 109.032 51.8511 109.12 52.2508 109.187L50.4077 119.446ZM72.7692 119.224L70.7263 109.009C71.1038 108.943 71.4813 108.854 71.8588 108.765L74.1682 118.913C73.7019 119.047 73.2356 119.135 72.7692 119.224ZM47.0546 118.758C46.5883 118.647 46.122 118.536 45.6557 118.403L48.3426 108.343C48.7201 108.432 49.0976 108.543 49.4751 108.632L47.0546 118.758ZM76.1223 118.447L73.4576 108.365C73.8351 108.254 74.2126 108.166 74.5901 108.055L77.4769 118.069C77.0328 118.203 76.5665 118.336 76.1223 118.447ZM43.7237 117.847C43.2574 117.714 42.8133 117.559 42.347 117.403L45.6334 107.522C46.011 107.655 46.3662 107.766 46.7437 107.877L43.7237 117.847ZM79.3866 117.492L76.1668 107.588C76.5443 107.455 76.9218 107.344 77.2993 107.211L80.7412 117.048C80.2971 117.181 79.853 117.337 79.3866 117.492ZM40.4816 116.759C40.0375 116.604 39.5934 116.426 39.1493 116.249L42.9687 106.567C43.324 106.7 43.7015 106.855 44.079 106.989L40.4816 116.759ZM82.6287 116.337L78.8315 106.633C79.1868 106.5 79.5643 106.345 79.9196 106.189L83.9611 115.804C83.517 115.982 83.0728 116.16 82.6287 116.337ZM37.3062 115.494C36.8621 115.294 36.4401 115.116 36.0182 114.916L40.415 105.456C40.7703 105.612 41.1256 105.789 41.4809 105.945L37.3062 115.494ZM85.782 114.983L81.4296 105.523C81.7849 105.368 82.1402 105.19 82.4955 105.012L87.0921 114.361C86.648 114.583 86.2261 114.783 85.782 114.983ZM34.2195 114.028C33.7976 113.806 33.3757 113.606 32.976 113.384L37.9057 104.213C38.261 104.391 38.5941 104.59 38.9494 104.768L34.2195 114.028ZM88.8686 113.473L83.9611 104.279C84.3164 104.102 84.6495 103.902 84.9826 103.724L90.1121 112.784C89.7124 113.006 89.2905 113.229 88.8686 113.473ZM31.2217 112.407C30.7998 112.163 30.4001 111.918 30.0004 111.674L35.4409 102.792C35.774 102.992 36.1071 103.191 36.4401 103.391L31.2217 112.407ZM91.8442 111.763L86.4259 102.858C86.759 102.658 87.0921 102.436 87.4252 102.237L93.0656 111.008C92.6658 111.274 92.2439 111.519 91.8442 111.763ZM28.3127 110.608C27.913 110.342 27.5133 110.075 27.1358 109.809L33.087 101.259C33.3979 101.482 33.731 101.704 34.0641 101.903L28.3127 110.608ZM94.7088 109.898L88.7798 101.326C89.1129 101.104 89.4238 100.882 89.7346 100.638L95.8635 109.076C95.486 109.365 95.1085 109.631 94.7088 109.898ZM25.5148 108.654C25.1373 108.365 24.7598 108.077 24.3823 107.788L30.7998 99.594C31.1107 99.8383 31.4216 100.083 31.7325 100.305L25.5148 108.654ZM97.4846 107.877L91.067 99.6606L91.9997 98.9056L98.5727 106.989C98.2174 107.3 97.8621 107.588 97.4846 107.877ZM22.8278 106.522C22.4725 106.211 22.1172 105.901 21.762 105.59L28.6458 97.7509C28.9345 98.0174 29.2454 98.2616 29.5341 98.5281L22.8278 106.522ZM100.105 105.701L93.2432 97.8619C93.5319 97.5955 93.8428 97.329 94.1314 97.0625L101.171 104.746C100.815 105.079 100.46 105.39 100.105 105.701ZM20.2964 104.257C19.9411 103.924 19.608 103.591 19.2749 103.258L26.5807 95.819C26.8693 96.0855 27.1358 96.3741 27.4245 96.6406L20.2964 104.257ZM102.614 103.369L95.3084 95.93C95.597 95.6635 95.8635 95.3749 96.1522 95.0862L103.636 102.348C103.303 102.703 102.969 103.036 102.614 103.369ZM17.8537 101.837C17.5206 101.504 17.2097 101.148 16.8988 100.793L24.6265 93.7982L25.4259 94.6643L17.8537 101.837ZM104.99 100.904L97.2847 93.8871C97.5512 93.5984 97.7954 93.3097 98.0619 93.021L105.945 99.8383C105.634 100.194 105.301 100.549 104.99 100.904ZM15.5665 99.2831C15.2556 98.9278 14.9669 98.5725 14.6782 98.195L22.8056 91.6665L23.5606 92.5991L15.5665 99.2831ZM107.211 98.3061L99.1056 91.7553C99.3499 91.4444 99.5941 91.1557 99.8384 90.8448L108.099 97.1958C107.81 97.5733 107.522 97.9286 107.211 98.3061ZM13.4347 96.6184C13.146 96.2409 12.8795 95.8634 12.5909 95.4637L21.0736 89.4236C21.2956 89.7345 21.5399 90.0676 21.762 90.3785L13.4347 96.6184ZM109.298 95.5747L100.815 89.5125L101.504 88.5354L110.098 94.42C109.831 94.8197 109.565 95.1972 109.298 95.5747ZM11.4806 93.8204C11.2141 93.4207 10.9476 93.021 10.7033 92.6213L19.5191 87.0698C19.719 87.4029 19.9411 87.736 20.1631 88.0469L11.4806 93.8204ZM111.208 92.7546L102.414 87.1808C102.614 86.8477 102.836 86.5147 103.036 86.1816L111.963 91.5332C111.696 91.9551 111.452 92.3548 111.208 92.7546ZM9.65966 90.9114C9.41539 90.4895 9.19333 90.0898 8.94907 89.6679L18.0758 84.6271C18.2756 84.9824 18.4533 85.3155 18.6531 85.6486L9.65966 90.9114ZM112.94 89.8234L103.835 84.7604C104.035 84.4273 104.213 84.072 104.391 83.7389L113.628 88.5798C113.406 88.9795 113.184 89.4014 112.94 89.8234ZM8.01641 87.8914C7.79435 87.4695 7.5945 87.0476 7.39464 86.6257L16.7878 82.1179C16.9654 82.4732 17.1431 82.8284 17.3207 83.1837L8.01641 87.8914ZM114.517 86.7811L105.146 82.2511C105.323 81.8958 105.479 81.5405 105.634 81.2074L115.138 85.4932C114.916 85.9373 114.716 86.3592 114.517 86.7811ZM6.55081 84.8048C6.35096 84.3607 6.17331 83.9387 5.99566 83.4946L15.6331 79.542C15.7885 79.8973 15.944 80.2748 16.0994 80.6301L6.55081 84.8048ZM115.916 83.6723L106.278 79.6974C106.434 79.3421 106.567 78.9646 106.722 78.5871L116.449 82.3399C116.271 82.784 116.093 83.2282 115.916 83.6723ZM5.26286 81.6071C5.10742 81.163 4.92977 80.7189 4.79654 80.2748L14.656 76.8994C14.7893 77.2769 14.9225 77.6544 15.0557 78.0319L5.26286 81.6071ZM117.137 80.4746L107.3 77.0549C107.433 76.6774 107.544 76.3221 107.677 75.9446L117.603 79.12C117.426 79.5642 117.292 80.0305 117.137 80.4746ZM4.15256 78.3428C4.01932 77.8987 3.88609 77.4324 3.75285 76.9883L13.79 74.1903C13.901 74.5678 14.012 74.9453 14.1231 75.3228L4.15256 78.3428ZM118.158 77.2103L108.143 74.3679C108.254 73.9904 108.343 73.6129 108.454 73.2354L118.536 75.8336C118.403 76.2777 118.292 76.744 118.158 77.2103ZM3.26432 75.0563C3.15329 74.59 3.04226 74.1237 2.95343 73.6574L13.1238 71.4367C13.2126 71.8143 13.3014 72.1918 13.3903 72.5693L3.26432 75.0563ZM119.002 73.9016L108.832 71.6366C108.921 71.2591 108.987 70.8816 109.076 70.5041L119.313 72.4804C119.202 72.9468 119.091 73.4131 119.002 73.9016ZM2.55373 71.7032C2.4649 71.2369 2.39828 70.7706 2.30946 70.3042L12.6131 68.6832C12.6797 69.0607 12.7463 69.4604 12.8129 69.8379L2.55373 71.7032ZM119.646 70.5263L109.365 68.8831L109.542 67.7061L119.868 69.1273C119.779 69.5937 119.713 70.06 119.646 70.5263ZM2.04299 68.3057C1.97637 67.8394 1.93196 67.3731 1.88754 66.9067L12.2578 65.863L12.391 67.04L2.04299 68.3057ZM120.09 67.1288L109.72 66.0629C109.764 65.6854 109.787 65.2857 109.831 64.9082L120.224 65.7076C120.179 66.1739 120.135 66.6624 120.09 67.1288ZM1.7099 64.9304C1.68769 64.4418 1.64328 63.9755 1.64328 63.487L12.0579 63.0651C12.0801 63.4648 12.1023 63.8423 12.1245 64.2198L1.7099 64.9304ZM120.335 63.709L109.92 63.2427L109.964 62.0436L120.379 62.2879C120.379 62.7764 120.357 63.2427 120.335 63.709ZM1.57666 61.4884V60.9777V60.0673L11.9913 60.2005V60.9333V61.3774L1.57666 61.4884ZM109.964 60.4226C109.964 60.0228 109.942 59.6453 109.942 59.2456L120.357 58.8681C120.379 59.3345 120.379 59.823 120.401 60.2893L109.964 60.4226ZM12.0579 58.6017L1.64328 58.0909C1.66548 57.6246 1.68769 57.1583 1.7321 56.6919L12.1245 57.4247L12.0579 58.6017ZM109.853 57.6024C109.831 57.2249 109.787 56.8252 109.764 56.4477L120.135 55.4706C120.179 55.9369 120.224 56.4255 120.246 56.914L109.853 57.6024ZM12.28 55.7815L1.90975 54.6934C1.95416 54.2271 2.02078 53.7385 2.06519 53.2722L12.391 54.6268C12.3688 54.9821 12.3244 55.3818 12.28 55.7815ZM109.587 54.7822L109.431 53.6053L119.735 52.0731C119.802 52.5394 119.868 53.0057 119.935 53.4721L109.587 54.7822ZM12.6575 52.9835L2.37608 51.2737C2.4427 50.8073 2.53152 50.341 2.62034 49.8747L12.8573 51.8066L12.6575 52.9835ZM109.143 51.9843C109.076 51.6068 108.987 51.2293 108.921 50.8517L119.113 48.6756C119.224 49.1419 119.313 49.6082 119.402 50.0967L109.143 51.9843ZM13.1904 50.1856L3.02005 47.9428C3.13108 47.4764 3.24211 46.9879 3.35314 46.5216L13.4569 49.0531C13.3681 49.4528 13.2792 49.8081 13.1904 50.1856ZM108.565 49.2529C108.477 48.8754 108.366 48.4979 108.277 48.1204L118.336 45.3669C118.469 45.8332 118.58 46.2995 118.691 46.7658L108.565 49.2529ZM13.901 47.4764L3.88609 44.6119C4.01932 44.1455 4.15256 43.7014 4.308 43.2351L14.2563 46.3661C14.1009 46.7214 13.9898 47.0989 13.901 47.4764ZM107.81 46.5216C107.699 46.1441 107.566 45.7666 107.455 45.4113L117.337 42.0804C117.492 42.5245 117.648 42.9908 117.781 43.4571L107.81 46.5216ZM14.7448 44.7895L4.90757 41.3476C5.06301 40.9034 5.21845 40.4593 5.3961 40.0152L15.1446 43.6792C15.0113 44.0567 14.8781 44.412 14.7448 44.7895ZM106.9 43.8568C106.767 43.4793 106.611 43.124 106.478 42.7465L116.16 38.8827C116.337 39.3268 116.515 39.7709 116.671 40.2151L106.9 43.8568ZM15.7663 42.147L6.1511 38.1499C6.32875 37.7058 6.52861 37.2617 6.70625 36.8397L16.2326 41.0811C16.055 41.4364 15.8996 41.7917 15.7663 42.147ZM105.834 41.2365C105.679 40.8812 105.523 40.5259 105.345 40.1706L114.761 35.7294C114.961 36.1736 115.161 36.5955 115.36 37.0396L105.834 41.2365ZM16.8988 39.5933L7.52788 35.041C7.72773 34.6191 7.94979 34.1972 8.17185 33.7753L17.4318 38.5496C17.2541 38.9049 17.0765 39.238 16.8988 39.5933ZM104.613 38.6828C104.435 38.3275 104.235 37.9722 104.058 37.6392L113.229 32.6872C113.451 33.1091 113.673 33.531 113.895 33.9529L104.613 38.6828ZM18.209 37.1062L9.10451 32.021C9.32657 31.5991 9.57084 31.1994 9.8151 30.7775L18.7863 36.0847C18.6087 36.4178 18.4088 36.7509 18.209 37.1062ZM103.236 36.1958C103.036 35.8627 102.836 35.5296 102.636 35.1965L111.497 29.7116C111.741 30.1113 112.007 30.5332 112.229 30.9329L103.236 36.1958ZM19.6746 34.6635L10.881 29.0898C11.1475 28.6901 11.3917 28.2904 11.6804 27.8907L20.3186 33.7087C20.0743 34.0196 19.8744 34.3527 19.6746 34.6635ZM101.748 33.7975L101.082 32.8204L109.609 26.847C109.876 27.2245 110.142 27.6242 110.408 28.0017L101.748 33.7975ZM21.2512 32.3319L12.7685 26.2697C13.0572 25.87 13.3459 25.4924 13.6345 25.0927L21.9396 31.3993C21.7175 31.7101 21.4733 32.021 21.2512 32.3319ZM100.105 31.5103C99.8606 31.1994 99.6163 30.8885 99.3721 30.5776L107.544 24.0935C107.833 24.471 108.121 24.8485 108.41 25.226L100.105 31.5103ZM22.9611 30.1113L14.8781 23.5383C15.1668 23.183 15.4776 22.8055 15.7885 22.4502L23.7161 29.2231C23.4496 29.5117 23.2053 29.8226 22.9611 30.1113ZM98.3506 29.2897C98.0841 28.9788 97.8399 28.6901 97.5734 28.4014L105.345 21.4732C105.656 21.8285 105.967 22.1837 106.278 22.539L98.3506 29.2897ZM24.8042 27.9795L17.0987 20.9624C17.4096 20.6071 17.7427 20.2518 18.0758 19.9187L25.6036 27.1357C25.3371 27.4022 25.0707 27.6908 24.8042 27.9795ZM96.4409 27.2023C96.1744 26.9136 95.9079 26.6472 95.6192 26.3807L102.969 19.0083C103.303 19.3414 103.636 19.6967 103.969 20.0298L96.4409 27.2023ZM26.7583 25.9366L19.4747 18.4975C19.8078 18.1645 20.1631 17.8314 20.5184 17.4983L27.6021 25.1372C27.3357 25.4036 27.047 25.6701 26.7583 25.9366ZM94.4423 25.2038C94.1536 24.9373 93.865 24.6708 93.5763 24.4044L100.505 16.61C100.86 16.9209 101.215 17.254 101.57 17.5649L94.4423 25.2038ZM28.8235 24.0491L22.0062 16.1881C22.3615 15.8772 22.7168 15.5663 23.0943 15.2777L29.7339 23.2941C29.423 23.5161 29.1344 23.7826 28.8235 24.0491ZM92.3327 23.3385C92.0219 23.0942 91.7332 22.8277 91.4223 22.5835L97.9065 14.4116C98.284 14.7003 98.6393 15.0112 99.0168 15.2999L92.3327 23.3385ZM31.0219 22.2282L24.6265 14.0119C25.004 13.7232 25.3815 13.4346 25.759 13.1459L31.9545 21.5176C31.6436 21.7618 31.3328 22.0061 31.0219 22.2282ZM90.1121 21.6064C89.8013 21.3843 89.4904 21.1401 89.1573 20.918L95.1529 12.3909C95.5526 12.6574 95.9301 12.946 96.3076 13.2347L90.1121 21.6064ZM33.3091 20.5627L27.4023 11.969C27.802 11.7025 28.2017 11.436 28.6014 11.1696L34.2862 19.8965C33.9531 20.1408 33.62 20.3629 33.3091 20.5627ZM87.8027 19.9853L86.8035 19.3414L92.3105 10.5034C92.7103 10.7476 93.11 11.0141 93.5097 11.2584L87.8027 19.9853ZM35.6629 19.0527L30.2891 10.1259C30.6888 9.8816 31.1107 9.63733 31.5104 9.41527L36.6844 18.4531C36.3513 18.653 36.0182 18.8528 35.6629 19.0527ZM85.4045 18.5198C85.0714 18.3199 84.7161 18.1422 84.383 17.9424L89.3793 8.79351C89.8013 9.01557 90.201 9.25983 90.6229 9.48189L85.4045 18.5198ZM38.15 17.6537L33.2647 8.43821C33.6866 8.21615 34.1085 7.99409 34.5526 7.77203L39.1937 17.0986C38.8384 17.2984 38.4831 17.4761 38.15 17.6537ZM82.9396 17.1874C82.5843 17.0097 82.229 16.8321 81.8737 16.6766L86.3149 7.26129C86.7368 7.46114 87.1587 7.661 87.5807 7.88306L82.9396 17.1874ZM40.6815 16.4102L36.3513 6.9282C36.7954 6.72834 37.2174 6.52849 37.6615 6.35084L41.7696 15.9216C41.3921 16.0771 41.0368 16.2325 40.6815 16.4102ZM80.3859 15.9883C80.0306 15.8328 79.6531 15.6774 79.2978 15.5441L83.2061 5.88451C83.6502 6.06216 84.0721 6.23981 84.5162 6.41746L80.3859 15.9883ZM43.2574 15.2999L39.5268 5.57363C39.9709 5.39598 40.415 5.24054 40.8591 5.0851L44.3899 14.9002L43.2574 15.2999ZM77.7434 14.9446C77.3881 14.8113 77.0106 14.6781 76.6331 14.5671L79.964 4.68539C80.4081 4.84083 80.8744 4.99627 81.3186 5.15171L77.7434 14.9446ZM45.9443 14.3672L42.7689 4.44112C43.213 4.30788 43.6793 4.15244 44.1234 4.01921L47.0768 14.0119C46.6993 14.123 46.3218 14.234 45.9443 14.3672ZM75.0787 14.0563C74.7011 13.9453 74.3237 13.8343 73.9462 13.7232L76.6997 3.66391C77.166 3.79715 77.6101 3.93038 78.0765 4.06362L75.0787 14.0563ZM48.6535 13.5678L46.0554 3.48626C46.5217 3.37523 46.9658 3.2642 47.4321 3.15317L49.8082 13.3013C49.4085 13.3902 49.031 13.479 48.6535 13.5678ZM72.3473 13.3235C71.9698 13.2347 71.5923 13.1459 71.2148 13.0793L73.3466 2.8867C73.8129 2.97552 74.2792 3.08655 74.7678 3.19758L72.3473 13.3235ZM51.407 12.946L49.3641 2.73126C49.8304 2.64243 50.3189 2.55361 50.7852 2.46478L52.5617 12.724C52.162 12.7906 51.7845 12.8572 51.407 12.946ZM69.5938 12.7684L68.4168 12.5685L69.9935 2.26493C70.4598 2.33155 70.9261 2.42037 71.3925 2.48699L69.5938 12.7684ZM54.1828 12.4797L52.7394 2.1539C53.2057 2.08728 53.672 2.02066 54.1606 1.97625L55.3597 12.3243C54.96 12.3687 54.5825 12.4131 54.1828 12.4797ZM66.7958 12.3465C66.3961 12.3021 66.0186 12.2576 65.6189 12.2132L66.5959 1.84301C67.0623 1.88743 67.5508 1.93184 68.0171 1.99846L66.7958 12.3465ZM57.0029 12.1688L56.1369 1.7764C56.6254 1.73198 57.0918 1.70978 57.5803 1.68757L58.1577 12.1022C57.7802 12.1022 57.3804 12.1244 57.0029 12.1688ZM63.9978 12.1022C63.5981 12.08 63.2206 12.0578 62.8209 12.0356L63.1984 1.62095C63.6648 1.64316 64.1533 1.66537 64.6196 1.68757L63.9978 12.1022ZM59.8009 12.0134L59.5566 1.59875C60.023 1.57654 60.5115 1.57654 60.9778 1.57654L61.1777 11.9912H60.889C60.6003 12.0134 60.2006 12.0134 59.8009 12.0134Z" fill="url(#paint1_linear_11:8521)"/>
<path d="M61 107.921C86.9139 107.921 107.921 86.9139 107.921 60.9999C107.921 35.086 86.9139 14.0786 61 14.0786C35.086 14.0786 14.0786 35.086 14.0786 60.9999C14.0786 86.9139 35.086 107.921 61 107.921Z" fill="url(#paint2_linear_11:8521)"/>
<path d="M105.989 60.9999C105.989 85.8484 85.8485 106.012 60.9999 106.012C36.1292 106.012 15.9883 85.8484 15.9883 60.9999C15.9883 58.7349 16.1659 56.5143 16.4768 54.3381C19.7189 32.6206 38.4164 15.9882 61.0221 15.9882C83.6279 15.9882 102.325 32.665 105.523 54.3603C105.812 56.5143 105.989 58.7349 105.989 60.9999Z" fill="url(#paint3_linear_11:8521)"/>
<path opacity="0.15" d="M105.501 54.3603C102.281 32.665 83.5835 15.9882 60.9999 15.9882C47.965 15.9882 36.2624 21.5398 28.0461 30.3778C36.1069 22.7389 46.9657 18.0312 58.957 18.0312C81.5627 18.0312 100.26 34.7079 103.458 56.4032C103.769 58.5794 103.946 60.8 103.946 63.0428C103.946 74.9453 99.2831 85.7596 91.7331 93.7982C100.482 85.582 105.989 73.9238 105.989 60.9777C105.989 58.7349 105.812 56.5143 105.501 54.3603Z" fill="url(#paint4_linear_11:8521)"/>
<path d="M105.501 54.3603C94.6643 63.8423 78.7425 69.8157 60.9999 69.8157C43.2351 69.8157 27.2911 63.8423 16.4546 54.3381C19.6967 32.6206 38.3942 15.9883 60.9999 15.9883C83.6057 15.9661 102.303 32.6428 105.501 54.3603Z" fill="#B88C31"/>
<path d="M67.151 54.5379H32.1099V60.045H67.151V54.5379Z" fill="#785411"/>
<path d="M67.151 65.108H32.1099V70.6151H67.151V65.108Z" fill="#785411"/>
<path d="M64.7083 91.7331C57.78 91.7331 51.2959 88.602 46.4549 82.9395C41.7028 77.388 39.1047 70.0378 39.1047 62.2213C39.1047 54.427 41.725 47.0545 46.4549 41.503C51.2959 35.8183 57.8022 32.7094 64.7083 32.7094C71.6366 32.7094 78.1208 35.8405 82.9617 41.503L78.7869 45.0782C74.9897 40.637 69.9933 38.1943 64.7083 38.1943C59.4233 38.1943 54.4269 40.637 50.6297 45.0782C46.7436 49.6304 44.5896 55.7149 44.5896 62.2213C44.5896 68.7054 46.7436 74.8121 50.6297 79.3643C54.4269 83.8055 59.4233 86.2482 64.7083 86.2482C69.9933 86.2482 74.9897 83.8055 78.7869 79.3643L82.9617 82.9395C78.1208 88.602 71.6366 91.7331 64.7083 91.7331Z" fill="#785411"/>
<path d="M66.1739 55.4929H31.1328V61H66.1739V55.4929Z" fill="url(#paint5_linear_11:8521)"/>
<path d="M66.1739 66.0852H31.1328V71.5923H66.1739V66.0852Z" fill="url(#paint6_linear_11:8521)"/>
<path d="M63.7312 92.7103C56.803 92.7103 50.3188 89.5793 45.4779 83.9168C40.7258 78.3652 38.1277 71.015 38.1277 63.1985C38.1277 55.382 40.748 48.0318 45.4779 42.4803C50.3188 36.7955 56.8252 33.6867 63.7312 33.6867C70.6595 33.6867 77.1437 36.8177 81.9846 42.4803L77.8099 46.0554C74.0126 41.6142 69.0163 39.1716 63.7312 39.1716C58.4462 39.1716 53.4499 41.6142 49.6526 46.0554C45.7666 50.6077 43.6126 56.6921 43.6126 63.1985C43.6126 69.7049 45.7666 75.7893 49.6526 80.3416C53.4499 84.7828 58.4462 87.2254 63.7312 87.2254C69.0163 87.2254 74.0126 84.7828 77.8099 80.3416L81.9846 83.9168C77.1437 89.5793 70.6595 92.7103 63.7312 92.7103Z" fill="url(#paint7_linear_11:8521)"/>
<defs>
<linearGradient id="paint0_linear_11:8521" x1="102.186" y1="23.4318" x2="-87.2993" y2="196.197" gradientUnits="userSpaceOnUse">
<stop stop-color="#FFF691"/>
<stop offset="0.063" stop-color="#FBF08A"/>
<stop offset="0.1533" stop-color="#F2E077"/>
<stop offset="0.2596" stop-color="#E1C658"/>
<stop offset="0.3379" stop-color="#D3AF3D"/>
<stop offset="0.3418" stop-color="#D2AE3C"/>
<stop offset="0.5107" stop-color="#B68D28"/>
<stop offset="0.6718" stop-color="#A1751A"/>
<stop offset="0.8204" stop-color="#946611"/>
<stop offset="0.9447" stop-color="#90610E"/>
</linearGradient>
<linearGradient id="paint1_linear_11:8521" x1="1.58421" y1="60.9919" x2="120.393" y2="60.9919" gradientUnits="userSpaceOnUse">
<stop stop-color="#FFF691"/>
<stop offset="0.063" stop-color="#FBF08A"/>
<stop offset="0.1533" stop-color="#F2E077"/>
<stop offset="0.2596" stop-color="#E1C658"/>
<stop offset="0.3379" stop-color="#D3AF3D"/>
<stop offset="0.3418" stop-color="#D2AE3C"/>
<stop offset="0.5107" stop-color="#B68D28"/>
<stop offset="0.6718" stop-color="#A1751A"/>
<stop offset="0.8204" stop-color="#946611"/>
<stop offset="0.9447" stop-color="#90610E"/>
</linearGradient>
<linearGradient id="paint2_linear_11:8521" x1="21.4566" y1="56.5223" x2="269.024" y2="84.5124" gradientUnits="userSpaceOnUse">
<stop stop-color="#FFF691"/>
<stop offset="0.063" stop-color="#FBF08A"/>
<stop offset="0.1533" stop-color="#F2E077"/>
<stop offset="0.2596" stop-color="#E1C658"/>
<stop offset="0.3379" stop-color="#D3AF3D"/>
<stop offset="0.3418" stop-color="#D2AE3C"/>
<stop offset="0.5107" stop-color="#B68D28"/>
<stop offset="0.6718" stop-color="#A1751A"/>
<stop offset="0.8204" stop-color="#946611"/>
<stop offset="0.9447" stop-color="#90610E"/>
</linearGradient>
<linearGradient id="paint3_linear_11:8521" x1="-49.7569" y1="202.33" x2="117.403" y2="-11.0028" gradientUnits="userSpaceOnUse">
<stop stop-color="#FFF691"/>
<stop offset="0.063" stop-color="#FBF08A"/>
<stop offset="0.1533" stop-color="#F2E077"/>
<stop offset="0.2596" stop-color="#E1C658"/>
<stop offset="0.3379" stop-color="#D3AF3D"/>
<stop offset="0.3418" stop-color="#D2AE3C"/>
<stop offset="0.5107" stop-color="#B68D28"/>
<stop offset="0.6718" stop-color="#A1751A"/>
<stop offset="0.8204" stop-color="#946611"/>
<stop offset="0.9447" stop-color="#90610E"/>
</linearGradient>
<linearGradient id="paint4_linear_11:8521" x1="8.99158" y1="127.475" x2="105.323" y2="4.53457" gradientUnits="userSpaceOnUse">
<stop stop-color="#FFF691"/>
<stop offset="0.063" stop-color="#FBF08A"/>
<stop offset="0.1533" stop-color="#F2E077"/>
<stop offset="0.2596" stop-color="#E1C658"/>
<stop offset="0.3379" stop-color="#D3AF3D"/>
<stop offset="0.3418" stop-color="#D2AE3C"/>
<stop offset="0.5107" stop-color="#B68D28"/>
<stop offset="0.6718" stop-color="#A1751A"/>
<stop offset="0.8204" stop-color="#946611"/>
<stop offset="0.9447" stop-color="#90610E"/>
</linearGradient>
<linearGradient id="paint5_linear_11:8521" x1="70.3835" y1="15.31" x2="-22.2734" y2="198.452" gradientUnits="userSpaceOnUse">
<stop stop-color="#FFF691"/>
<stop offset="0.063" stop-color="#FBF08A"/>
<stop offset="0.1533" stop-color="#F2E077"/>
<stop offset="0.2596" stop-color="#E1C658"/>
<stop offset="0.3379" stop-color="#D3AF3D"/>
<stop offset="0.3418" stop-color="#D2AE3C"/>
<stop offset="0.5107" stop-color="#B68D28"/>
<stop offset="0.6718" stop-color="#A1751A"/>
<stop offset="0.8204" stop-color="#946611"/>
<stop offset="0.9447" stop-color="#90610E"/>
</linearGradient>
<linearGradient id="paint6_linear_11:8521" x1="74.6453" y1="17.4658" x2="-18.0123" y2="200.609" gradientUnits="userSpaceOnUse">
<stop stop-color="#FFF691"/>
<stop offset="0.063" stop-color="#FBF08A"/>
<stop offset="0.1533" stop-color="#F2E077"/>
<stop offset="0.2596" stop-color="#E1C658"/>
<stop offset="0.3379" stop-color="#D3AF3D"/>
<stop offset="0.3418" stop-color="#D2AE3C"/>
<stop offset="0.5107" stop-color="#B68D28"/>
<stop offset="0.6718" stop-color="#A1751A"/>
<stop offset="0.8204" stop-color="#946611"/>
<stop offset="0.9447" stop-color="#90610E"/>
</linearGradient>
<linearGradient id="paint7_linear_11:8521" x1="84.0056" y1="22.2019" x2="-8.65134" y2="205.344" gradientUnits="userSpaceOnUse">
<stop stop-color="#FFF691"/>
<stop offset="0.063" stop-color="#FBF08A"/>
<stop offset="0.1533" stop-color="#F2E077"/>
<stop offset="0.2596" stop-color="#E1C658"/>
<stop offset="0.3379" stop-color="#D3AF3D"/>
<stop offset="0.3418" stop-color="#D2AE3C"/>
<stop offset="0.5107" stop-color="#B68D28"/>
<stop offset="0.6718" stop-color="#A1751A"/>
<stop offset="0.8204" stop-color="#946611"/>
<stop offset="0.9447" stop-color="#90610E"/>
</linearGradient>
</defs>
</svg>
