<svg width="178" height="60" viewBox="0 0 178 60" fill="none" xmlns="http://www.w3.org/2000/svg">
<path d="M0 60V21.5281L177.255 0V38.4893L0 60ZM3.69391 24.7536V55.8585L173.565 35.2464V4.16323L3.69391 24.7536Z" fill="white"/>
<path d="M14.3136 51.1951L9.50702 51.7647L6.66675 27.8902L11.4734 27.325L12.2206 33.5773L14.5496 35.66L20.8244 26.2163L26.9419 25.4902L17.8924 38.6513L29.804 49.3603L23.4243 50.1168L13.0683 40.8253L14.3136 51.1951Z" fill="white"/>
<path d="M56.4706 46.0678L51.2808 46.6791L38.0945 43.4234L36.6104 48.4088L31.3726 49.02L38.7928 24.0717L43.3891 23.5298L56.4706 46.0678ZM41.905 30.544L39.5742 38.4381L47.7714 40.584L41.905 30.544Z" fill="white"/>
<path d="M81.075 43.3524L76.2282 43.9219L73.3333 20.0897L78.1273 19.5246L86.9398 31.0972L92.756 17.8291L97.5148 17.2552L100.392 41.0874L95.5452 41.6526L93.8268 27.4324L90.3018 35.5272L95.0385 41.7395L89.4513 42.3917L88.0898 40.6092L87.2086 42.6568L81.6258 43.3089L84.7366 36.1836L79.3566 29.1322L81.075 43.3524Z" fill="white"/>
<path d="M127.451 37.4406L122.261 38.0517L109.075 34.801L107.591 39.7768L102.353 40.3922L109.773 15.4742L114.356 14.902L127.451 37.4406ZM112.877 21.9237L110.546 29.8078L118.748 31.9316L112.877 21.9237Z" fill="white"/>
<path d="M142.654 27.8722L149.412 34.867L143.455 35.5707L137.208 29.0942L133.015 29.5907L133.881 36.6933L129.116 37.2547L127.691 25.4198L133.028 24.7851L126.851 18.3948L126.274 13.5676L137.689 12.2162C139.629 11.9841 141.588 12.4344 143.23 13.4893C144.872 14.5441 146.092 16.1373 146.681 17.9936C147.27 19.85 147.189 21.8529 146.454 23.6566C145.719 25.4602 144.375 26.9513 142.654 27.8722ZM138.98 24.0986H139.106C140.055 23.984 140.919 23.4985 141.509 22.7487C142.099 21.9989 142.366 21.0462 142.251 20.1003C142.136 19.1545 141.649 18.2928 140.897 17.705C140.144 17.1171 139.188 16.8512 138.239 16.9657L132.733 17.6047L138.98 24.0986Z" fill="white"/>
<path d="M161.724 33.6402C156.817 34.1874 151.702 32.0819 151.172 27.8534L151.115 27.4157L155.973 26.8685L156.03 27.3062C156.198 28.6457 158.99 29.2979 161.163 29.0572C162.704 28.8864 164.387 28.3349 165.385 27.1355L150.015 18.626L149.847 17.4661C149.326 13.2989 153.61 10.0684 158.681 9.49935C163.649 8.93906 168.707 11.0883 169.232 15.2862L169.29 15.7239L164.431 16.2667L164.374 15.8289C164.206 14.4895 161.415 13.8373 159.246 14.078C157.735 14.2487 155.991 14.8353 155.019 16.004L170.403 24.5135L170.548 25.6735C171.048 29.8101 166.79 33.0668 161.724 33.6402Z" fill="white"/>
<path d="M74.902 43.9515L74.3117 39.2114L62.7648 40.5726L60.4825 21.5686L55.6863 22.134L58.5413 45.8824L74.902 43.9515Z" fill="white"/>
</svg>
